SourceDevanagariSans_1.ufo
<glyph name="I" format="1">
	<advance width="316"/>
	<outline>
		<contour>
			<point x="72" y="0" type="line"/>
			<point x="244" y="0" type="line"/>
			<point x="244" y="650" type="line"/>
			<point x="72" y="650" type="line"/>
		</contour>
		<contour>
			<point name="aboveUC" x="158" y="672" type="move"/>
		</contour>
		<contour>
			<point name="belowLC" x="158" y="-22" type="move"/>
		</contour>
		<contour>
			<point name="ogonekUC" x="140" y="0" type="move"/>
		</contour>
	</outline>
</glyph>
<glyph name="danda" format="1">
	<advance width="354"/>
	<outline>
		<contour>
			<point x="104" y="-40" type="line"/>
			<point x="250" y="-40" type="line"/>
			<point x="250" y="604" type="line"/>
			<point x="104" y="604" type="line"/>
		</contour>
	</outline>
</glyph>
<glyph name="dotlessi" format="1">
	<advance width="288"/>
	<outline>
		<contour>
			<point x="58" y="0" type="line"/>
			<point x="230" y="0" type="line"/>
			<point x="230" y="500" type="line"/>
			<point x="58" y="500" type="line"/>
		</contour>
		<contour>
			<point name="aboveLC" x="144" y="522" type="move"/>
		</contour>
		<contour>
			<point name="belowLC" x="144" y="-22" type="move"/>
		</contour>
		<contour>
			<point name="ogonekLC" x="190" y="0" type="move"/>
		</contour>
	</outline>
</glyph>
<glyph name="dvAa" format="1">
	<advance width="1100"/>
	<outline>
		<contour>
			<point x="870" y="0" type="line"/>
			<point x="1036" y="0" type="line"/>
			<point x="1036" y="516" type="line"/>
			<point x="870" y="516" type="line"/>
		</contour>
		<contour>
			<point x="796" y="574" type="line"/>
			<point x="796" y="478" type="line"/>
			<point x="1110" y="478" type="line"/>
			<point x="1110" y="574" type="line"/>
		</contour>
		<contour>
			<point x="293" y="379" type="curve"/>
			<point x="322" y="274" type="line"/>
			<point x="340" y="274"/>
			<point x="364" y="252"/>
			<point x="364" y="212" type="curve" smooth="yes"/>
			<point x="364" y="175"/>
			<point x="344" y="146"/>
			<point x="291" y="146" type="curve" smooth="yes"/>
			<point x="221" y="146"/>
			<point x="178" y="196"/>
			<point x="118" y="333" type="curve"/>
			<point x="20" y="282" type="line"/>
			<point x="86" y="134"/>
			<point x="163" y="14"/>
			<point x="311" y="14" type="curve" smooth="yes"/>
			<point x="415" y="14"/>
			<point x="504" y="75"/>
			<point x="504" y="196" type="curve" smooth="yes"/>
			<point x="504" y="272"/>
			<point x="392" y="379"/>
		</contour>
		<contour>
			<point x="611" y="360" type="line"/>
			<point x="592" y="313"/>
			<point x="546" y="304"/>
			<point x="520" y="304" type="curve" smooth="yes"/>
			<point x="480" y="304"/>
			<point x="448" y="310"/>
			<point x="414" y="333" type="curve"/>
			<point x="388" y="261" type="line"/>
			<point x="454" y="214"/>
			<point x="498" y="194"/>
			<point x="543" y="194" type="curve" smooth="yes"/>
			<point x="602" y="194"/>
			<point x="647" y="222"/>
			<point x="667" y="296" type="curve"/>
		</contour>
		<contour>
			<point x="284" y="248" type="line"/>
			<point x="368" y="267"/>
			<point x="458" y="327"/>
			<point x="458" y="412" type="curve" smooth="yes"/>
			<point x="458" y="510"/>
			<point x="386" y="580"/>
			<point x="280" y="580" type="curve" smooth="yes"/>
			<point x="234" y="580"/>
			<point x="192" y="571"/>
			<point x="131" y="538" type="curve"/>
			<point x="194" y="435" type="line"/>
			<point x="225" y="454"/>
			<point x="247" y="466"/>
			<point x="276" y="466" type="curve" smooth="yes"/>
			<point x="306" y="466"/>
			<point x="320" y="447"/>
			<point x="320" y="422" type="curve" smooth="yes"/>
			<point x="320" y="387"/>
			<point x="282" y="369"/>
			<point x="235" y="357" type="curve"/>
		</contour>
		<contour>
			<point x="600" y="0" type="line"/>
			<point x="766" y="0" type="line"/>
			<point x="766" y="516" type="line"/>
			<point x="600" y="516" type="line"/>
		</contour>
		<contour>
			<point x="526" y="574" type="line"/>
			<point x="526" y="478" type="line"/>
			<point x="840" y="478" type="line"/>
			<point x="840" y="574" type="line"/>
		</contour>
	</outline>
</glyph>
<glyph name="dvAasign" format="1">
	<advance width="294"/>
	<outline>
		<contour>
			<point x="64" y="0" type="line"/>
			<point x="230" y="0" type="line"/>
			<point x="230" y="516" type="line"/>
			<point x="64" y="516" type="line"/>
		</contour>
		<contour>
			<point x="-10" y="574" type="line"/>
			<point x="-10" y="478" type="line"/>
			<point x="304" y="478" type="line"/>
			<point x="304" y="574" type="line"/>
		</contour>
	</outline>
</glyph>
<glyph name="dvAi" format="1">
	<advance width="592"/>
	<outline>
		<contour>
			<point x="232" y="488" type="line"/>
			<point x="64" y="488" type="line"/>
			<point x="64" y="352" type="line" smooth="yes"/>
			<point x="64" y="202"/>
			<point x="96" y="174"/>
			<point x="250" y="96" type="curve"/>
			<point x="375" y="22" type="line"/>
			<point x="388" y="16"/>
			<point x="397" y="2"/>
			<point x="397" y="-18" type="curve" smooth="yes"/>
			<point x="397" y="-42"/>
			<point x="386" y="-52"/>
			<point x="372" y="-63" type="curve"/>
			<point x="478" y="-153" type="line"/>
			<point x="519" y="-114"/>
			<point x="547" y="-80"/>
			<point x="547" y="-26" type="curve" smooth="yes"/>
			<point x="547" y="43"/>
			<point x="491" y="90"/>
			<point x="439" y="118" type="curve" smooth="yes"/>
			<point x="290" y="202" type="line" smooth="yes"/>
			<point x="242" y="228"/>
			<point x="232" y="269"/>
			<point x="232" y="348" type="curve" smooth="yes"/>
		</contour>
		<contour>
			<point x="388" y="498" type="line"/>
			<point x="388" y="402" type="line" smooth="yes"/>
			<point x="388" y="348"/>
			<point x="373" y="319"/>
			<point x="343" y="299" type="curve"/>
			<point x="467" y="202" type="line"/>
			<point x="522" y="230"/>
			<point x="556" y="290"/>
			<point x="556" y="360" type="curve" smooth="yes"/>
			<point x="556" y="498" type="line"/>
		</contour>
		<contour>
			<point x="-10" y="574" type="line"/>
			<point x="-10" y="478" type="line"/>
			<point x="602" y="478" type="line"/>
			<point x="602" y="574" type="line"/>
		</contour>
		<contour>
			<point x="80" y="842" type="curve" smooth="yes"/>
			<point x="62" y="842"/>
			<point x="41" y="841"/>
			<point x="6" y="826" type="curve"/>
			<point x="44" y="712" type="line"/>
			<point x="75" y="722"/>
			<point x="100" y="726"/>
			<point x="119" y="726" type="curve" smooth="yes"/>
			<point x="222" y="726"/>
			<point x="298" y="636"/>
			<point x="362" y="554" type="curve"/>
			<point x="444" y="573" type="line"/>
			<point x="338" y="698"/>
			<point x="234" y="842"/>
		</contour>
	</outline>
</glyph>
<glyph name="dvAisign" format="1">
	<outline>
		<contour>
			<point x="-553" y="768" type="curve" smooth="yes"/>
			<point x="-573" y="768"/>
			<point x="-592" y="766"/>
			<point x="-627" y="751" type="curve"/>
			<point x="-590" y="637" type="line"/>
			<point x="-552" y="647"/>
			<point x="-518" y="654"/>
			<point x="-495" y="654" type="curve" smooth="yes"/>
			<point x="-369" y="654"/>
			<point x="-261" y="584"/>
			<point x="-198" y="554" type="curve"/>
			<point x="-116" y="573" type="line"/>
			<point x="-245" y="660"/>
			<point x="-404" y="768"/>
		</contour>
		<contour>
			<point x="-461" y="915" type="curve" smooth="yes"/>
			<point x="-480" y="915"/>
			<point x="-500" y="913"/>
			<point x="-535" y="898" type="curve"/>
			<point x="-498" y="784" type="line"/>
			<point x="-460" y="795"/>
			<point x="-427" y="801"/>
			<point x="-403" y="801" type="curve" smooth="yes"/>
			<point x="-333" y="801"/>
			<point x="-298" y="738"/>
			<point x="-198" y="554" type="curve"/>
			<point x="-116" y="573" type="line"/>
			<point x="-254" y="827"/>
			<point x="-312" y="915"/>
		</contour>
	</outline>
</glyph>
<glyph name="dvAnusvara" format="1">
	<outline>
		<contour>
			<point x="-140" y="768" type="curve" smooth="yes"/>
			<point x="-190" y="768"/>
			<point x="-220" y="736"/>
			<point x="-220" y="692" type="curve" smooth="yes"/>
			<point x="-220" y="648"/>
			<point x="-190" y="614"/>
			<point x="-140" y="614" type="curve" smooth="yes"/>
			<point x="-90" y="614"/>
			<point x="-60" y="648"/>
			<point x="-60" y="692" type="curve" smooth="yes"/>
			<point x="-60" y="736"/>
			<point x="-90" y="768"/>
		</contour>
	</outline>
</glyph>
<glyph name="dvAshort" format="1">
	<advance width="790"/>
	<outline>
		<contour>
			<point x="293" y="379" type="curve"/>
			<point x="322" y="274" type="line"/>
			<point x="340" y="274"/>
			<point x="364" y="252"/>
			<point x="364" y="212" type="curve" smooth="yes"/>
			<point x="364" y="175"/>
			<point x="344" y="146"/>
			<point x="291" y="146" type="curve" smooth="yes"/>
			<point x="221" y="146"/>
			<point x="178" y="196"/>
			<point x="118" y="333" type="curve"/>
			<point x="20" y="282" type="line"/>
			<point x="86" y="134"/>
			<point x="163" y="14"/>
			<point x="311" y="14" type="curve" smooth="yes"/>
			<point x="415" y="14"/>
			<point x="504" y="75"/>
			<point x="504" y="196" type="curve" smooth="yes"/>
			<point x="504" y="272"/>
			<point x="392" y="379"/>
		</contour>
		<contour>
			<point x="611" y="360" type="line"/>
			<point x="592" y="313"/>
			<point x="546" y="304"/>
			<point x="520" y="304" type="curve" smooth="yes"/>
			<point x="480" y="304"/>
			<point x="448" y="310"/>
			<point x="414" y="333" type="curve"/>
			<point x="388" y="261" type="line"/>
			<point x="454" y="214"/>
			<point x="498" y="194"/>
			<point x="543" y="194" type="curve" smooth="yes"/>
			<point x="602" y="194"/>
			<point x="647" y="222"/>
			<point x="667" y="296" type="curve"/>
		</contour>
		<contour>
			<point x="284" y="248" type="line"/>
			<point x="368" y="267"/>
			<point x="458" y="327"/>
			<point x="458" y="412" type="curve" smooth="yes"/>
			<point x="458" y="510"/>
			<point x="386" y="580"/>
			<point x="280" y="580" type="curve" smooth="yes"/>
			<point x="234" y="580"/>
			<point x="192" y="571"/>
			<point x="131" y="538" type="curve"/>
			<point x="194" y="435" type="line"/>
			<point x="225" y="454"/>
			<point x="247" y="466"/>
			<point x="276" y="466" type="curve" smooth="yes"/>
			<point x="306" y="466"/>
			<point x="320" y="447"/>
			<point x="320" y="422" type="curve" smooth="yes"/>
			<point x="320" y="387"/>
			<point x="282" y="369"/>
			<point x="235" y="357" type="curve"/>
		</contour>
		<contour>
			<point x="600" y="0" type="line"/>
			<point x="766" y="0" type="line"/>
			<point x="766" y="516" type="line"/>
			<point x="600" y="516" type="line"/>
		</contour>
		<contour>
			<point x="526" y="574" type="line"/>
			<point x="526" y="478" type="line"/>
			<point x="840" y="478" type="line"/>
			<point x="840" y="574" type="line"/>
		</contour>
		<contour>
			<point x="242" y="783" type="line"/>
			<point x="282" y="688"/>
			<point x="333" y="654"/>
			<point x="393" y="654" type="curve" smooth="yes"/>
			<point x="432" y="654"/>
			<point x="457" y="664"/>
			<point x="488" y="664" type="curve" smooth="yes"/>
			<point x="533" y="664"/>
			<point x="566" y="644"/>
			<point x="592" y="554" type="curve"/>
			<point x="664" y="572" type="line"/>
			<point x="619" y="695"/>
			<point x="596" y="770"/>
			<point x="485" y="770" type="curve" smooth="yes"/>
			<point x="444" y="770"/>
			<point x="411" y="760"/>
			<point x="381" y="760" type="curve" smooth="yes"/>
			<point x="355" y="760"/>
			<point x="326" y="766"/>
			<point x="294" y="817" type="curve"/>
		</contour>
	</outline>
</glyph>
<glyph name="dvAu" format="1">
	<advance width="1064"/>
	<outline>
		<contour>
			<point x="293" y="379" type="curve"/>
			<point x="322" y="274" type="line"/>
			<point x="340" y="274"/>
			<point x="364" y="252"/>
			<point x="364" y="212" type="curve" smooth="yes"/>
			<point x="364" y="175"/>
			<point x="344" y="146"/>
			<point x="291" y="146" type="curve" smooth="yes"/>
			<point x="221" y="146"/>
			<point x="178" y="196"/>
			<point x="118" y="333" type="curve"/>
			<point x="20" y="282" type="line"/>
			<point x="86" y="134"/>
			<point x="163" y="14"/>
			<point x="311" y="14" type="curve" smooth="yes"/>
			<point x="415" y="14"/>
			<point x="504" y="75"/>
			<point x="504" y="196" type="curve" smooth="yes"/>
			<point x="504" y="272"/>
			<point x="392" y="379"/>
		</contour>
		<contour>
			<point x="611" y="360" type="line"/>
			<point x="592" y="313"/>
			<point x="546" y="304"/>
			<point x="520" y="304" type="curve" smooth="yes"/>
			<point x="480" y="304"/>
			<point x="448" y="310"/>
			<point x="414" y="333" type="curve"/>
			<point x="388" y="261" type="line"/>
			<point x="454" y="214"/>
			<point x="498" y="194"/>
			<point x="543" y="194" type="curve" smooth="yes"/>
			<point x="602" y="194"/>
			<point x="647" y="222"/>
			<point x="667" y="296" type="curve"/>
		</contour>
		<contour>
			<point x="284" y="248" type="line"/>
			<point x="368" y="267"/>
			<point x="458" y="327"/>
			<point x="458" y="412" type="curve" smooth="yes"/>
			<point x="458" y="510"/>
			<point x="386" y="580"/>
			<point x="280" y="580" type="curve" smooth="yes"/>
			<point x="234" y="580"/>
			<point x="192" y="571"/>
			<point x="131" y="538" type="curve"/>
			<point x="194" y="435" type="line"/>
			<point x="225" y="454"/>
			<point x="247" y="466"/>
			<point x="276" y="466" type="curve" smooth="yes"/>
			<point x="306" y="466"/>
			<point x="320" y="447"/>
			<point x="320" y="422" type="curve" smooth="yes"/>
			<point x="320" y="387"/>
			<point x="282" y="369"/>
			<point x="235" y="357" type="curve"/>
		</contour>
		<contour>
			<point x="600" y="0" type="line"/>
			<point x="766" y="0" type="line"/>
			<point x="766" y="516" type="line"/>
			<point x="600" y="516" type="line"/>
		</contour>
		<contour>
			<point x="526" y="574" type="line"/>
			<point x="526" y="478" type="line"/>
			<point x="840" y="478" type="line"/>
			<point x="840" y="574" type="line"/>
		</contour>
		<contour>
			<point x="854" y="0" type="line"/>
			<point x="1020" y="0" type="line"/>
			<point x="1020" y="516" type="line"/>
			<point x="854" y="516" type="line"/>
		</contour>
		<contour>
			<point x="780" y="574" type="line"/>
			<point x="780" y="478" type="line"/>
			<point x="1094" y="478" type="line"/>
			<point x="1094" y="574" type="line"/>
		</contour>
		<contour>
			<point x="511" y="768" type="curve" smooth="yes"/>
			<point x="491" y="768"/>
			<point x="472" y="766"/>
			<point x="437" y="751" type="curve"/>
			<point x="474" y="637" type="line"/>
			<point x="512" y="647"/>
			<point x="546" y="654"/>
			<point x="569" y="654" type="curve" smooth="yes"/>
			<point x="695" y="654"/>
			<point x="803" y="584"/>
			<point x="866" y="554" type="curve"/>
			<point x="948" y="573" type="line"/>
			<point x="819" y="660"/>
			<point x="660" y="768"/>
		</contour>
		<contour>
			<point x="603" y="915" type="curve" smooth="yes"/>
			<point x="584" y="915"/>
			<point x="564" y="913"/>
			<point x="529" y="898" type="curve"/>
			<point x="566" y="784" type="line"/>
			<point x="604" y="795"/>
			<point x="637" y="801"/>
			<point x="661" y="801" type="curve" smooth="yes"/>
			<point x="731" y="801"/>
			<point x="766" y="738"/>
			<point x="866" y="554" type="curve"/>
			<point x="948" y="573" type="line"/>
			<point x="810" y="827"/>
			<point x="752" y="915"/>
		</contour>
	</outline>
</glyph>
<glyph name="dvAusign" format="1">
  <advance width="294"/>
  <outline>
    <contour>
      <point x="64" y="0" type="line"/>
      <point x="230" y="0" type="line"/>
      <point x="230" y="516" type="line"/>
      <point x="64" y="516" type="line"/>
    </contour>
    <contour>
      <point x="-10" y="574" type="line"/>
      <point x="-10" y="478" type="line"/>
      <point x="304" y="478" type="line"/>
      <point x="304" y="574" type="line"/>
    </contour>
    <contour>
      <point x="-279" y="768" type="curve" smooth="yes"/>
      <point x="-299" y="768"/>
      <point x="-318" y="766"/>
      <point x="-353" y="751" type="curve"/>
      <point x="-316" y="637" type="line"/>
      <point x="-278" y="647"/>
      <point x="-244" y="654"/>
      <point x="-221" y="654" type="curve" smooth="yes"/>
      <point x="-95" y="654"/>
      <point x="13" y="584"/>
      <point x="76" y="554" type="curve"/>
      <point x="158" y="573" type="line"/>
      <point x="29" y="660"/>
      <point x="-130" y="768"/>
    </contour>
    <contour>
      <point x="-187" y="915" type="curve" smooth="yes"/>
      <point x="-206" y="915"/>
      <point x="-226" y="913"/>
      <point x="-261" y="898" type="curve"/>
      <point x="-224" y="784" type="line"/>
      <point x="-186" y="795"/>
      <point x="-153" y="801"/>
      <point x="-129" y="801" type="curve" smooth="yes"/>
      <point x="-59" y="801"/>
      <point x="-24" y="738"/>
      <point x="76" y="554" type="curve"/>
      <point x="158" y="573" type="line"/>
      <point x="20" y="827"/>
      <point x="-38" y="915"/>
    </contour>
  </outline>
</glyph>
<glyph name="dvBha" format="1">
	<advance width="612"/>
	<outline>
		<contour>
			<point x="-40" y="574" type="line"/>
			<point x="-40" y="478" type="line"/>
			<point x="662" y="478" type="line"/>
			<point x="662" y="574" type="line"/>
		</contour>
		<contour>
			<point x="108" y="516" type="line"/>
			<point x="108" y="314" type="line"/>
			<point x="94" y="312"/>
			<point x="88" y="312"/>
			<point x="74" y="308" type="curve" smooth="yes"/>
			<point x="43" y="299"/>
			<point x="19" y="275"/>
			<point x="19" y="241" type="curve" smooth="yes"/>
			<point x="19" y="168"/>
			<point x="138" y="76"/>
			<point x="204" y="76" type="curve" smooth="yes"/>
			<point x="246" y="76"/>
			<point x="278" y="99"/>
			<point x="278" y="145" type="curve" smooth="yes"/>
			<point x="278" y="159"/>
			<point x="278" y="165"/>
			<point x="276" y="192" type="curve"/>
			<point x="422" y="192" type="line"/>
			<point x="422" y="314" type="line"/>
			<point x="274" y="314" type="line"/>
			<point x="274" y="516" type="line"/>
		</contour>
		<contour>
			<point x="422" y="0" type="line"/>
			<point x="588" y="0" type="line"/>
			<point x="588" y="516" type="line"/>
			<point x="422" y="516" type="line"/>
		</contour>
	</outline>
</glyph>
<glyph name="dvBa" format="1">
  <advance width="598"/>
  <outline>
    <contour>
      <point x="361" y="190" type="line"/>
      <point x="236" y="329" type="line"/>
      <point x="179" y="303" type="line"/>
      <point x="306" y="162" type="line"/>
    </contour>
    <contour>
      <point x="-10" y="574" type="line"/>
      <point x="-10" y="478" type="line"/>
      <point x="608" y="478" type="line"/>
      <point x="608" y="574" type="line"/>
    </contour>
    <contour>
      <point x="260" y="46" type="curve" smooth="yes"/>
      <point x="295" y="46"/>
      <point x="339" y="56"/>
      <point x="368" y="82" type="curve"/>
      <point x="368" y="257" type="line" smooth="yes"/>
      <point x="368" y="267"/>
      <point x="368" y="250"/>
      <point x="362" y="230" type="curve" smooth="yes"/>
      <point x="354" y="199"/>
      <point x="316" y="170"/>
      <point x="262" y="170" type="curve" smooth="yes"/>
      <point x="212" y="170"/>
      <point x="184" y="198"/>
      <point x="184" y="238" type="curve" smooth="yes"/>
      <point x="184" y="278"/>
      <point x="218" y="304"/>
      <point x="262" y="304" type="curve" smooth="yes"/>
      <point x="296" y="304"/>
      <point x="337" y="295"/>
      <point x="368" y="272" type="curve"/>
      <point x="375" y="365" type="line"/>
      <point x="339" y="416"/>
      <point x="275" y="432"/>
      <point x="228" y="432" type="curve" smooth="yes"/>
      <point x="108" y="432"/>
      <point x="36" y="352"/>
      <point x="36" y="250" type="curve" smooth="yes"/>
      <point x="36" y="118"/>
      <point x="144" y="46"/>
    </contour>
    <contour>
      <point x="368" y="0" type="line"/>
      <point x="534" y="0" type="line"/>
      <point x="534" y="516" type="line"/>
      <point x="368" y="516" type="line"/>
    </contour>
  </outline>
</glyph>
<glyph name="dvCha" format="1">
	<advance width="624"/>
	<outline>
		<contour>
			<point x="168" y="295" type="curve" smooth="yes"/>
			<point x="168" y="311"/>
			<point x="182" y="329"/>
			<point x="214" y="329" type="curve" smooth="yes"/>
			<point x="224" y="329"/>
			<point x="234" y="328"/>
			<point x="246" y="326" type="curve"/>
			<point x="235" y="422" type="line"/>
			<point x="208" y="426"/>
			<point x="196" y="426"/>
			<point x="177" y="426" type="curve" smooth="yes"/>
			<point x="78" y="426"/>
			<point x="29" y="370"/>
			<point x="29" y="313" type="curve" smooth="yes"/>
			<point x="29" y="228"/>
			<point x="137" y="185"/>
			<point x="222" y="185" type="curve"/>
			<point x="219" y="253" type="line"/>
			<point x="197" y="253"/>
			<point x="168" y="262"/>
		</contour>
		<contour>
			<point x="244" y="280" type="line"/>
			<point x="147" y="290"/>
			<point x="83" y="234"/>
			<point x="83" y="166" type="curve" smooth="yes"/>
			<point x="83" y="58"/>
			<point x="167" y="-2"/>
			<point x="323" y="-2" type="curve" smooth="yes"/>
			<point x="475" y="-2"/>
			<point x="612" y="110"/>
			<point x="612" y="280" type="curve" smooth="yes"/>
			<point x="612" y="380"/>
			<point x="542" y="446"/>
			<point x="427" y="446" type="curve" smooth="yes"/>
			<point x="346" y="446"/>
			<point x="297" y="384"/>
			<point x="297" y="317" type="curve" smooth="yes"/>
			<point x="297" y="243"/>
			<point x="350" y="171"/>
			<point x="441" y="123" type="curve"/>
			<point x="485" y="192" type="line"/>
			<point x="416" y="236"/>
			<point x="396" y="270"/>
			<point x="396" y="308" type="curve" smooth="yes"/>
			<point x="396" y="338"/>
			<point x="415" y="356"/>
			<point x="435" y="356" type="curve" smooth="yes"/>
			<point x="454" y="356"/>
			<point x="479" y="345"/>
			<point x="479" y="294" type="curve" smooth="yes"/>
			<point x="479" y="166"/>
			<point x="416" y="114"/>
			<point x="305" y="114" type="curve" smooth="yes"/>
			<point x="247" y="114"/>
			<point x="222" y="139"/>
			<point x="222" y="160" type="curve" smooth="yes"/>
			<point x="222" y="175"/>
			<point x="235" y="190"/>
			<point x="257" y="192" type="curve"/>
		</contour>
		<contour>
			<point x="371" y="507" type="line"/>
			<point x="371" y="392" type="line"/>
			<point x="535" y="374" type="line"/>
			<point x="535" y="507" type="line"/>
		</contour>
		<contour>
			<point x="-10" y="574" type="line"/>
			<point x="-10" y="478" type="line"/>
			<point x="664" y="478" type="line"/>
			<point x="664" y="574" type="line"/>
		</contour>
	</outline>
</glyph>
<glyph name="dvCa" format="1">
  <advance width="654"/>
  <outline>
    <contour>
      <point x="-10" y="574" type="line"/>
      <point x="-10" y="478" type="line"/>
      <point x="664" y="478" type="line"/>
      <point x="664" y="574" type="line"/>
    </contour>
    <contour>
      <point x="314" y="182" type="curve" smooth="yes"/>
      <point x="275" y="182"/>
      <point x="252" y="197"/>
      <point x="252" y="233" type="curve" smooth="yes"/>
      <point x="252" y="264"/>
      <point x="276" y="287"/>
      <point x="335" y="293" type="curve"/>
      <point x="245" y="393" type="line"/>
      <point x="160" y="372"/>
      <point x="104" y="330"/>
      <point x="104" y="246" type="curve" smooth="yes"/>
      <point x="104" y="113"/>
      <point x="211" y="58"/>
      <point x="302" y="58" type="curve" smooth="yes"/>
      <point x="339" y="58"/>
      <point x="387" y="69"/>
      <point x="424" y="93" type="curve"/>
      <point x="424" y="278" type="line"/>
      <point x="424" y="268"/>
      <point x="422" y="255"/>
      <point x="418" y="246" type="curve"/>
      <point x="405" y="212"/>
      <point x="365" y="182"/>
    </contour>
    <contour>
      <point x="335" y="400" type="line"/>
      <point x="22" y="400" type="line"/>
      <point x="22" y="279" type="line"/>
      <point x="224" y="279" type="line"/>
      <point x="280" y="298" type="line"/>
      <point x="335" y="293" type="line"/>
    </contour>
    <contour>
      <point x="424" y="0" type="line"/>
      <point x="590" y="0" type="line"/>
      <point x="590" y="516" type="line"/>
      <point x="424" y="516" type="line"/>
    </contour>
  </outline>
</glyph>
<glyph name="dvCandrabindu" format="1">
  <advance width="0"/>
  <outline>
    <contour>
      <point x="-166" y="624" type="curve" smooth="yes"/>
      <point x="-70" y="624"/>
      <point x="-16" y="678"/>
      <point x="-16" y="760" type="curve" smooth="yes"/>
      <point x="-16" y="784"/>
      <point x="-18" y="798"/>
      <point x="-26" y="826" type="curve"/>
      <point x="-118" y="810" type="line"/>
      <point x="-114" y="792"/>
      <point x="-112" y="788"/>
      <point x="-112" y="774" type="curve" smooth="yes"/>
      <point x="-112" y="746"/>
      <point x="-138" y="726"/>
      <point x="-178" y="726" type="curve" smooth="yes"/>
      <point x="-219" y="726"/>
      <point x="-255" y="742"/>
      <point x="-301" y="794" type="curve"/>
      <point x="-372" y="742" type="line"/>
      <point x="-315" y="666"/>
      <point x="-254" y="624"/>
    </contour>
    <contour>
      <point x="-204" y="871" type="curve" smooth="yes"/>
      <point x="-243" y="871"/>
      <point x="-268" y="844"/>
      <point x="-268" y="809" type="curve" smooth="yes"/>
      <point x="-268" y="776"/>
      <point x="-243" y="748"/>
      <point x="-205" y="748" type="curve" smooth="yes"/>
      <point x="-165" y="748"/>
      <point x="-139" y="776"/>
      <point x="-139" y="809" type="curve" smooth="yes"/>
      <point x="-140" y="844"/>
      <point x="-165" y="871"/>
    </contour>
  </outline>
</glyph>
<glyph name="dvDa" format="1">
	<advance width="524"/>
	<outline>
		<contour>
			<point x="454" y="-126" type="curve"/>
			<point x="537" y="-39" type="line"/>
			<point x="493" y="-6"/>
			<point x="475" y="9"/>
			<point x="453" y="40" type="curve"/>
			<point x="475" y="59"/>
			<point x="499" y="88"/>
			<point x="499" y="134" type="curve" smooth="yes"/>
			<point x="499" y="198"/>
			<point x="468" y="231"/>
			<point x="418" y="231" type="curve" smooth="yes"/>
			<point x="361" y="231"/>
			<point x="323" y="187"/>
			<point x="323" y="110" type="curve" smooth="yes"/>
			<point x="323" y="18"/>
			<point x="380" y="-41"/>
		</contour>
		<contour>
			<point x="-10" y="574" type="line"/>
			<point x="-10" y="478" type="line"/>
			<point x="504" y="478" type="line"/>
			<point x="504" y="574" type="line"/>
		</contour>
		<contour>
			<point x="292" y="-2" type="curve" smooth="yes"/>
			<point x="346" y="-2"/>
			<point x="402" y="9"/>
			<point x="450" y="42" type="curve"/>
			<point x="398" y="158" type="line"/>
			<point x="364" y="140"/>
			<point x="332" y="131"/>
			<point x="290" y="131" type="curve" smooth="yes"/>
			<point x="230" y="131"/>
			<point x="188" y="166"/>
			<point x="188" y="212" type="curve" smooth="yes"/>
			<point x="188" y="271"/>
			<point x="226" y="294"/>
			<point x="298" y="294" type="curve" smooth="yes"/>
			<point x="424" y="294" type="line"/>
			<point x="424" y="488" type="line"/>
			<point x="258" y="488" type="line"/>
			<point x="258" y="416" type="line"/>
			<point x="243" y="416" type="line" smooth="yes"/>
			<point x="140" y="416"/>
			<point x="44" y="355"/>
			<point x="44" y="216" type="curve" smooth="yes"/>
			<point x="44" y="74"/>
			<point x="162" y="-2"/>
		</contour>
	</outline>
</glyph>
<glyph name="dvDda" format="1">
	<advance width="586"/>
	<outline>
		<contour>
			<point x="-10" y="574" type="line"/>
			<point x="-10" y="478" type="line"/>
			<point x="596" y="478" type="line"/>
			<point x="596" y="574" type="line"/>
		</contour>
		<contour>
			<point x="365" y="328" type="curve" smooth="yes"/>
			<point x="393" y="328"/>
			<point x="446" y="327"/>
			<point x="484" y="326" type="curve"/>
			<point x="484" y="478" type="line"/>
			<point x="324" y="478" type="line"/>
			<point x="324" y="428" type="line"/>
			<point x="314" y="428"/>
			<point x="301" y="428"/>
			<point x="294" y="428" type="curve" smooth="yes"/>
			<point x="186" y="428"/>
			<point x="138" y="362"/>
			<point x="138" y="298" type="curve" smooth="yes"/>
			<point x="138" y="235"/>
			<point x="170" y="196"/>
			<point x="220" y="154" type="curve"/>
			<point x="268" y="154"/>
			<point x="320" y="156"/>
			<point x="364" y="156" type="curve" smooth="yes"/>
			<point x="396" y="156"/>
			<point x="408" y="146"/>
			<point x="408" y="122" type="curve" smooth="yes"/>
			<point x="408" y="100"/>
			<point x="373" y="80"/>
			<point x="306" y="80" type="curve" smooth="yes"/>
			<point x="211" y="80"/>
			<point x="150" y="130"/>
			<point x="104" y="207" type="curve"/>
			<point x="20" y="135" type="line"/>
			<point x="100" y="18"/>
			<point x="196" y="-40"/>
			<point x="328" y="-40" type="curve" smooth="yes"/>
			<point x="469" y="-40"/>
			<point x="551" y="30"/>
			<point x="551" y="125" type="curve" smooth="yes"/>
			<point x="551" y="210"/>
			<point x="504" y="264"/>
			<point x="420" y="264" type="curve" smooth="yes"/>
			<point x="357" y="264"/>
			<point x="344" y="262"/>
			<point x="294" y="260" type="curve"/>
			<point x="294" y="266"/>
			<point x="285" y="275"/>
			<point x="285" y="290" type="curve" smooth="yes"/>
			<point x="285" y="315"/>
			<point x="315" y="328"/>
		</contour>
	</outline>
</glyph>
<glyph name="dvDha" format="1">
  <advance width="606"/>
  <outline>
    <contour>
      <point x="-10" y="574" type="line"/>
      <point x="-10" y="478" type="line"/>
      <point x="616" y="478" type="line"/>
      <point x="616" y="574" type="line"/>
    </contour>
    <contour>
      <point x="213" y="274" type="curve"/>
      <point x="202" y="379" type="line"/>
      <point x="177" y="379"/>
      <point x="142" y="400"/>
      <point x="142" y="428" type="curve" smooth="yes"/>
      <point x="142" y="456"/>
      <point x="152" y="473"/>
      <point x="168" y="480" type="curve"/>
      <point x="53" y="555" type="line"/>
      <point x="26" y="509"/>
      <point x="18" y="489"/>
      <point x="18" y="440" type="curve" smooth="yes"/>
      <point x="18" y="336"/>
      <point x="126" y="274"/>
    </contour>
    <contour>
      <point x="313" y="195" type="curve" smooth="yes"/>
      <point x="287" y="195"/>
      <point x="269" y="216"/>
      <point x="269" y="249" type="curve" smooth="yes"/>
      <point x="269" y="273"/>
      <point x="297" y="291"/>
      <point x="331" y="299" type="curve"/>
      <point x="278" y="414" type="line"/>
      <point x="217" y="397"/>
      <point x="145" y="359"/>
      <point x="145" y="262" type="curve" smooth="yes"/>
      <point x="145" y="151"/>
      <point x="239" y="81"/>
      <point x="322" y="81" type="curve" smooth="yes"/>
      <point x="345" y="81"/>
      <point x="373" y="86"/>
      <point x="396" y="98" type="curve"/>
      <point x="396" y="274" type="line"/>
      <point x="396" y="263"/>
      <point x="394" y="251"/>
      <point x="390" y="241" type="curve" smooth="yes"/>
      <point x="379" y="217"/>
      <point x="354" y="195"/>
    </contour>
    <contour>
      <point x="396" y="0" type="line"/>
      <point x="542" y="0" type="line"/>
      <point x="542" y="496" type="line"/>
      <point x="396" y="496" type="line"/>
    </contour>
  </outline>
</glyph>
<glyph name="dvEcandra" format="1">
	<advance width="592"/>
	<outline>
		<contour>
			<point x="232" y="488" type="line"/>
			<point x="64" y="488" type="line"/>
			<point x="64" y="352" type="line" smooth="yes"/>
			<point x="64" y="202"/>
			<point x="96" y="174"/>
			<point x="250" y="96" type="curve"/>
			<point x="375" y="22" type="line"/>
			<point x="388" y="16"/>
			<point x="397" y="2"/>
			<point x="397" y="-18" type="curve" smooth="yes"/>
			<point x="397" y="-42"/>
			<point x="386" y="-52"/>
			<point x="372" y="-63" type="curve"/>
			<point x="478" y="-153" type="line"/>
			<point x="519" y="-114"/>
			<point x="547" y="-80"/>
			<point x="547" y="-26" type="curve" smooth="yes"/>
			<point x="547" y="43"/>
			<point x="491" y="90"/>
			<point x="439" y="118" type="curve" smooth="yes"/>
			<point x="290" y="202" type="line" smooth="yes"/>
			<point x="242" y="228"/>
			<point x="232" y="269"/>
			<point x="232" y="348" type="curve" smooth="yes"/>
		</contour>
		<contour>
			<point x="388" y="498" type="line"/>
			<point x="388" y="402" type="line" smooth="yes"/>
			<point x="388" y="348"/>
			<point x="373" y="319"/>
			<point x="343" y="299" type="curve"/>
			<point x="467" y="202" type="line"/>
			<point x="522" y="230"/>
			<point x="556" y="290"/>
			<point x="556" y="360" type="curve" smooth="yes"/>
			<point x="556" y="498" type="line"/>
		</contour>
		<contour>
			<point x="-10" y="574" type="line"/>
			<point x="-10" y="478" type="line"/>
			<point x="602" y="478" type="line"/>
			<point x="602" y="574" type="line"/>
		</contour>
		<contour>
			<point x="294" y="624" type="curve" smooth="yes"/>
			<point x="390" y="624"/>
			<point x="444" y="678"/>
			<point x="444" y="760" type="curve" smooth="yes"/>
			<point x="444" y="784"/>
			<point x="442" y="798"/>
			<point x="434" y="826" type="curve"/>
			<point x="342" y="810" type="line"/>
			<point x="346" y="792"/>
			<point x="348" y="788"/>
			<point x="348" y="774" type="curve" smooth="yes"/>
			<point x="348" y="746"/>
			<point x="322" y="726"/>
			<point x="282" y="726" type="curve" smooth="yes"/>
			<point x="241" y="726"/>
			<point x="205" y="742"/>
			<point x="159" y="794" type="curve"/>
			<point x="88" y="742" type="line"/>
			<point x="145" y="666"/>
			<point x="206" y="624"/>
		</contour>
	</outline>
</glyph>
<glyph name="dvEshort" format="1">
	<advance width="592"/>
	<outline>
		<contour>
			<point x="232" y="488" type="line"/>
			<point x="64" y="488" type="line"/>
			<point x="64" y="352" type="line" smooth="yes"/>
			<point x="64" y="202"/>
			<point x="96" y="174"/>
			<point x="250" y="96" type="curve"/>
			<point x="375" y="22" type="line"/>
			<point x="388" y="16"/>
			<point x="397" y="2"/>
			<point x="397" y="-18" type="curve" smooth="yes"/>
			<point x="397" y="-42"/>
			<point x="386" y="-52"/>
			<point x="372" y="-63" type="curve"/>
			<point x="478" y="-153" type="line"/>
			<point x="519" y="-114"/>
			<point x="547" y="-80"/>
			<point x="547" y="-26" type="curve" smooth="yes"/>
			<point x="547" y="43"/>
			<point x="491" y="90"/>
			<point x="439" y="118" type="curve" smooth="yes"/>
			<point x="290" y="202" type="line" smooth="yes"/>
			<point x="242" y="228"/>
			<point x="232" y="269"/>
			<point x="232" y="348" type="curve" smooth="yes"/>
		</contour>
		<contour>
			<point x="388" y="498" type="line"/>
			<point x="388" y="402" type="line" smooth="yes"/>
			<point x="388" y="348"/>
			<point x="373" y="319"/>
			<point x="343" y="299" type="curve"/>
			<point x="467" y="202" type="line"/>
			<point x="522" y="230"/>
			<point x="556" y="290"/>
			<point x="556" y="360" type="curve" smooth="yes"/>
			<point x="556" y="498" type="line"/>
		</contour>
		<contour>
			<point x="-10" y="574" type="line"/>
			<point x="-10" y="478" type="line"/>
			<point x="602" y="478" type="line"/>
			<point x="602" y="574" type="line"/>
		</contour>
		<contour>
			<point x="12" y="783" type="line"/>
			<point x="52" y="688"/>
			<point x="103" y="654"/>
			<point x="163" y="654" type="curve" smooth="yes"/>
			<point x="202" y="654"/>
			<point x="227" y="664"/>
			<point x="258" y="664" type="curve" smooth="yes"/>
			<point x="303" y="664"/>
			<point x="336" y="644"/>
			<point x="362" y="554" type="curve"/>
			<point x="434" y="572" type="line"/>
			<point x="389" y="695"/>
			<point x="366" y="770"/>
			<point x="255" y="770" type="curve" smooth="yes"/>
			<point x="214" y="770"/>
			<point x="181" y="760"/>
			<point x="151" y="760" type="curve" smooth="yes"/>
			<point x="125" y="760"/>
			<point x="96" y="766"/>
			<point x="64" y="817" type="curve"/>
		</contour>
	</outline>
</glyph>
<glyph name="dvEshortsign" format="1">
	<outline>
		<contour>
			<point x="-548" y="783" type="line"/>
			<point x="-508" y="688"/>
			<point x="-457" y="654"/>
			<point x="-397" y="654" type="curve" smooth="yes"/>
			<point x="-358" y="654"/>
			<point x="-333" y="664"/>
			<point x="-302" y="664" type="curve" smooth="yes"/>
			<point x="-257" y="664"/>
			<point x="-224" y="644"/>
			<point x="-198" y="554" type="curve"/>
			<point x="-126" y="572" type="line"/>
			<point x="-171" y="695"/>
			<point x="-194" y="770"/>
			<point x="-305" y="770" type="curve" smooth="yes"/>
			<point x="-346" y="770"/>
			<point x="-379" y="760"/>
			<point x="-409" y="760" type="curve" smooth="yes"/>
			<point x="-435" y="760"/>
			<point x="-464" y="766"/>
			<point x="-496" y="817" type="curve"/>
		</contour>
	</outline>
</glyph>
<glyph name="dvEsign" format="1">
	<outline>
		<contour>
			<point x="-480" y="842" type="curve" smooth="yes"/>
			<point x="-498" y="842"/>
			<point x="-519" y="841"/>
			<point x="-554" y="826" type="curve"/>
			<point x="-516" y="712" type="line"/>
			<point x="-485" y="722"/>
			<point x="-460" y="726"/>
			<point x="-441" y="726" type="curve" smooth="yes"/>
			<point x="-338" y="726"/>
			<point x="-262" y="636"/>
			<point x="-198" y="554" type="curve"/>
			<point x="-116" y="573" type="line"/>
			<point x="-222" y="698"/>
			<point x="-326" y="842"/>
		</contour>
	</outline>
</glyph>
<glyph name="dvEcandrasign" format="1">
  <advance width="0"/>
  <outline>
    <contour>
      <point x="-166" y="624" type="curve" smooth="yes"/>
      <point x="-70" y="624"/>
      <point x="-16" y="678"/>
      <point x="-16" y="760" type="curve" smooth="yes"/>
      <point x="-16" y="784"/>
      <point x="-18" y="798"/>
      <point x="-26" y="826" type="curve"/>
      <point x="-118" y="810" type="line"/>
      <point x="-114" y="792"/>
      <point x="-112" y="788"/>
      <point x="-112" y="774" type="curve" smooth="yes"/>
      <point x="-112" y="746"/>
      <point x="-138" y="726"/>
      <point x="-178" y="726" type="curve" smooth="yes"/>
      <point x="-219" y="726"/>
      <point x="-255" y="742"/>
      <point x="-301" y="794" type="curve"/>
      <point x="-372" y="742" type="line"/>
      <point x="-315" y="666"/>
      <point x="-254" y="624"/>
    </contour>
  </outline>
</glyph>
<glyph name="dvFa" format="1">
  <advance width="766"/>
  <outline>
    <contour>
      <point x="-10" y="574" type="line"/>
      <point x="-10" y="478" type="line"/>
      <point x="826" y="478" type="line"/>
      <point x="826" y="574" type="line"/>
    </contour>
    <contour>
      <point x="302" y="260" type="curve" smooth="yes"/>
      <point x="263" y="260"/>
      <point x="231" y="285"/>
      <point x="231" y="366" type="curve" smooth="yes"/>
      <point x="231" y="488" type="line"/>
      <point x="64" y="488" type="line"/>
      <point x="64" y="379" type="line" smooth="yes"/>
      <point x="64" y="220"/>
      <point x="161" y="146"/>
      <point x="278" y="146" type="curve" smooth="yes"/>
      <point x="306" y="146"/>
      <point x="343" y="154"/>
      <point x="366" y="166" type="curve"/>
      <point x="366" y="339" type="line"/>
      <point x="366" y="325"/>
      <point x="366" y="314"/>
      <point x="361" y="301" type="curve" smooth="yes"/>
      <point x="353" y="278"/>
      <point x="333" y="260"/>
    </contour>
    <contour>
      <point x="366" y="0" type="line"/>
      <point x="522" y="0" type="line"/>
      <point x="522" y="516" type="line"/>
      <point x="366" y="516" type="line"/>
    </contour>
    <contour>
      <point x="502" y="195" type="line"/>
      <point x="536" y="231"/>
      <point x="566" y="252"/>
      <point x="602" y="252" type="curve" smooth="yes"/>
      <point x="626" y="252"/>
      <point x="638" y="237"/>
      <point x="638" y="209" type="curve" smooth="yes"/>
      <point x="638" y="183"/>
      <point x="613" y="134"/>
      <point x="567" y="90" type="curve"/>
      <point x="704" y="7" type="line"/>
      <point x="758" y="68"/>
      <point x="788" y="144"/>
      <point x="788" y="202" type="curve" smooth="yes"/>
      <point x="788" y="296"/>
      <point x="719" y="380"/>
      <point x="606" y="380" type="curve" smooth="yes"/>
      <point x="560" y="380"/>
      <point x="524" y="365"/>
      <point x="502" y="351" type="curve"/>
    </contour>
    <contour>
      <point x="180" y="76" type="curve" smooth="yes"/>
      <point x="131" y="76"/>
      <point x="100" y="43"/>
      <point x="100" y="-1" type="curve" smooth="yes"/>
      <point x="100" y="-43"/>
      <point x="131" y="-77"/>
      <point x="179" y="-77" type="curve" smooth="yes"/>
      <point x="229" y="-77"/>
      <point x="261" y="-43"/>
      <point x="261" y="-1" type="curve" smooth="yes"/>
      <point x="260" y="43"/>
      <point x="229" y="76"/>
    </contour>
  </outline>
</glyph>
<glyph name="dvGa" format="1">
	<advance width="684"/>
	<outline>
		<contour>
			<point x="-10" y="574" type="line"/>
			<point x="-10" y="478" type="line"/>
			<point x="694" y="478" type="line"/>
			<point x="694" y="574" type="line"/>
		</contour>
		<contour>
			<point x="147" y="525" type="line"/>
			<point x="147" y="329" type="line"/>
			<point x="128" y="334"/>
			<point x="99" y="339"/>
			<point x="87" y="339" type="curve" smooth="yes"/>
			<point x="60" y="339"/>
			<point x="39" y="317"/>
			<point x="39" y="283" type="curve" smooth="yes"/>
			<point x="39" y="182"/>
			<point x="200" y="92"/>
			<point x="264" y="92" type="curve" smooth="yes"/>
			<point x="290" y="92"/>
			<point x="314" y="114"/>
			<point x="314" y="142" type="curve" smooth="yes"/>
			<point x="314" y="525" type="line"/>
		</contour>
		<contour>
			<point x="454" y="0" type="line"/>
			<point x="620" y="0" type="line"/>
			<point x="620" y="516" type="line"/>
			<point x="454" y="516" type="line"/>
		</contour>
	</outline>
</glyph>
<glyph name="dvHa" format="1">
	<advance width="496"/>
	<outline>
		<contour>
			<point x="402" y="-138" type="line"/>
			<point x="314" y="-98"/>
			<point x="210" y="-39"/>
			<point x="210" y="44" type="curve" smooth="yes"/>
			<point x="210" y="98"/>
			<point x="236" y="124"/>
			<point x="282" y="124" type="curve" smooth="yes"/>
			<point x="320" y="124"/>
			<point x="346" y="104"/>
			<point x="346" y="74" type="curve" smooth="yes"/>
			<point x="346" y="55"/>
			<point x="336" y="38"/>
			<point x="313" y="18" type="curve"/>
			<point x="418" y="-70" type="line"/>
			<point x="462" y="-29"/>
			<point x="478" y="11"/>
			<point x="478" y="61" type="curve" smooth="yes"/>
			<point x="478" y="148"/>
			<point x="390" y="236"/>
			<point x="256" y="236" type="curve" smooth="yes"/>
			<point x="120" y="236"/>
			<point x="49" y="148"/>
			<point x="49" y="64" type="curve" smooth="yes"/>
			<point x="49" y="-83"/>
			<point x="225" y="-188"/>
			<point x="338" y="-242" type="curve"/>
		</contour>
		<contour>
			<point x="-10" y="574" type="line"/>
			<point x="-10" y="478" type="line"/>
			<point x="506" y="478" type="line"/>
			<point x="506" y="574" type="line"/>
		</contour>
		<contour>
			<point x="270" y="318" type="curve" smooth="yes"/>
			<point x="309" y="318"/>
			<point x="355" y="317"/>
			<point x="408" y="316" type="curve"/>
			<point x="408" y="478" type="line"/>
			<point x="248" y="478" type="line"/>
			<point x="248" y="418" type="line"/>
			<point x="235" y="418"/>
			<point x="221" y="418"/>
			<point x="204" y="418" type="curve" smooth="yes"/>
			<point x="112" y="418"/>
			<point x="58" y="351"/>
			<point x="58" y="292" type="curve" smooth="yes"/>
			<point x="58" y="238"/>
			<point x="96" y="192"/>
			<point x="148" y="165" type="curve"/>
			<point x="228" y="227" type="line"/>
			<point x="215" y="240"/>
			<point x="206" y="255"/>
			<point x="206" y="282" type="curve" smooth="yes"/>
			<point x="206" y="307"/>
			<point x="232" y="318"/>
		</contour>
	</outline>
</glyph>
<glyph name="dvIisign" format="1">
  <advance width="294"/>
  <outline>
    <contour>
      <point x="-288" y="690" type="curve" smooth="yes"/>
      <point x="-288" y="646"/>
      <point x="-264" y="600"/>
      <point x="-216" y="566" type="curve"/>
      <point x="-88" y="566" type="line"/>
      <point x="-136" y="594"/>
      <point x="-152" y="626"/>
      <point x="-152" y="648" type="curve" smooth="yes"/>
      <point x="-152" y="676"/>
      <point x="-140" y="692"/>
      <point x="-106" y="692" type="curve" smooth="yes"/>
      <point x="-65" y="692"/>
      <point x="3" y="648"/>
      <point x="58" y="566" type="curve"/>
      <point x="192" y="566" type="line"/>
      <point x="108" y="697"/>
      <point x="2" y="814"/>
      <point x="-136" y="814" type="curve" smooth="yes"/>
      <point x="-237" y="814"/>
      <point x="-288" y="752"/>
    </contour>
    <contour>
      <point x="64" y="0" type="line"/>
      <point x="230" y="0" type="line"/>
      <point x="230" y="516" type="line"/>
      <point x="64" y="516" type="line"/>
    </contour>
    <contour>
      <point x="-10" y="574" type="line"/>
      <point x="-10" y="478" type="line"/>
      <point x="304" y="478" type="line"/>
      <point x="304" y="574" type="line"/>
    </contour>
  </outline>
</glyph>
<glyph name="dvIsign" format="1">
  <advance width="294"/>
  <outline>
    <contour>
      <point x="12" y="690" type="curve" smooth="yes"/>
      <point x="12" y="646"/>
      <point x="36" y="600"/>
      <point x="84" y="566" type="curve"/>
      <point x="212" y="566" type="line"/>
      <point x="163" y="594"/>
      <point x="148" y="626"/>
      <point x="148" y="648" type="curve" smooth="yes"/>
      <point x="148" y="682"/>
      <point x="178" y="702"/>
      <point x="254" y="702" type="curve" smooth="yes"/>
      <point x="375" y="702"/>
      <point x="526" y="676"/>
      <point x="688" y="566" type="curve"/>
      <point x="862" y="566" type="line"/>
      <point x="675" y="718"/>
      <point x="448" y="824"/>
      <point x="224" y="824" type="curve" smooth="yes"/>
      <point x="81" y="824"/>
      <point x="12" y="757"/>
    </contour>
    <contour>
      <point x="64" y="0" type="line"/>
      <point x="230" y="0" type="line"/>
      <point x="230" y="516" type="line"/>
      <point x="64" y="516" type="line"/>
    </contour>
    <contour>
      <point x="-10" y="574" type="line"/>
      <point x="-10" y="478" type="line"/>
      <point x="304" y="478" type="line"/>
      <point x="304" y="574" type="line"/>
    </contour>
  </outline>
</glyph>
<glyph name="dvJha" format="1">
	<advance width="790"/>
	<outline>
		<contour>
			<point x="551" y="280" type="line"/>
			<point x="532" y="232"/>
			<point x="482" y="228"/>
			<point x="456" y="228" type="curve" smooth="yes"/>
			<point x="441" y="228"/>
			<point x="424" y="230"/>
			<point x="374" y="252" type="curve"/>
			<point x="344" y="171" type="line"/>
			<point x="402" y="124"/>
			<point x="454" y="103"/>
			<point x="483" y="103" type="curve" smooth="yes"/>
			<point x="552" y="103"/>
			<point x="607" y="135"/>
			<point x="607" y="216" type="curve"/>
		</contour>
		<contour>
			<point x="540" y="0" type="line"/>
			<point x="706" y="0" type="line"/>
			<point x="706" y="516" type="line"/>
			<point x="540" y="516" type="line"/>
		</contour>
		<contour>
			<point x="286" y="574" type="line"/>
			<point x="286" y="478" type="line"/>
			<point x="800" y="478" type="line"/>
			<point x="800" y="574" type="line"/>
		</contour>
		<contour>
			<point x="-10" y="574" type="line"/>
			<point x="-10" y="478" type="line"/>
			<point x="500" y="478" type="line"/>
			<point x="500" y="574" type="line"/>
		</contour>
		<contour>
			<point x="228" y="-40" type="curve" smooth="yes"/>
			<point x="350" y="-40"/>
			<point x="435" y="26"/>
			<point x="435" y="115" type="curve" smooth="yes"/>
			<point x="435" y="175"/>
			<point x="408" y="214"/>
			<point x="376" y="252" type="curve"/>
			<point x="338" y="250"/>
			<point x="299" y="243"/>
			<point x="234" y="243" type="curve" smooth="yes"/>
			<point x="200" y="243"/>
			<point x="185" y="255"/>
			<point x="185" y="280" type="curve" smooth="yes"/>
			<point x="185" y="305"/>
			<point x="211" y="318"/>
			<point x="249" y="318" type="curve" smooth="yes"/>
			<point x="281" y="318"/>
			<point x="344" y="317"/>
			<point x="388" y="316" type="curve"/>
			<point x="388" y="478" type="line"/>
			<point x="228" y="478" type="line"/>
			<point x="228" y="418" type="line"/>
			<point x="218" y="418"/>
			<point x="201" y="418"/>
			<point x="194" y="418" type="curve" smooth="yes"/>
			<point x="86" y="418"/>
			<point x="38" y="352"/>
			<point x="38" y="288" type="curve" smooth="yes"/>
			<point x="38" y="179"/>
			<point x="136" y="141"/>
			<point x="198" y="141" type="curve" smooth="yes"/>
			<point x="235" y="141"/>
			<point x="252" y="142"/>
			<point x="284" y="146" type="curve"/>
			<point x="292" y="137"/>
			<point x="292" y="129"/>
			<point x="292" y="114" type="curve" smooth="yes"/>
			<point x="292" y="87"/>
			<point x="262" y="60"/>
			<point x="214" y="60" type="curve" smooth="yes"/>
			<point x="194" y="60"/>
			<point x="172" y="63"/>
			<point x="146" y="76" type="curve"/>
			<point x="106" y="26" type="line"/>
			<point x="147" y="-44"/>
			<point x="245" y="-136"/>
			<point x="352" y="-178" type="curve"/>
			<point x="413" y="-77" type="line"/>
			<point x="334" y="-54"/>
			<point x="246" y="-20"/>
			<point x="219" y="35" type="curve"/>
			<point x="182" y="82"/>
			<point x="158" y="130"/>
			<point x="88" y="130" type="curve" smooth="yes"/>
			<point x="47" y="130"/>
			<point x="21" y="104"/>
			<point x="21" y="63" type="curve" smooth="yes"/>
			<point x="21" y="-1"/>
			<point x="107" y="-40"/>
		</contour>
	</outline>
</glyph>
<glyph name="dvJa" format="1">
  <advance width="762"/>
  <outline>
    <contour>
      <point x="-10" y="574" type="line"/>
      <point x="-10" y="478" type="line"/>
      <point x="772" y="478" type="line"/>
      <point x="772" y="574" type="line"/>
    </contour>
    <contour>
      <point x="542" y="390" type="line"/>
      <point x="254" y="390" type="line"/>
      <point x="254" y="269" type="line"/>
      <point x="542" y="269" type="line"/>
    </contour>
    <contour>
      <point x="288" y="40" type="curve" smooth="yes"/>
      <point x="367" y="40"/>
      <point x="459" y="88"/>
      <point x="459" y="210" type="curve" smooth="yes"/>
      <point x="459" y="315"/>
      <point x="361" y="377"/>
      <point x="273" y="377" type="curve"/>
      <point x="300" y="282" type="line"/>
      <point x="319" y="263"/>
      <point x="326" y="250"/>
      <point x="326" y="222" type="curve" smooth="yes"/>
      <point x="326" y="196"/>
      <point x="307" y="175"/>
      <point x="276" y="175" type="curve" smooth="yes"/>
      <point x="198" y="175"/>
      <point x="157" y="276"/>
      <point x="136" y="400" type="curve"/>
      <point x="28" y="369" type="line"/>
      <point x="67" y="166"/>
      <point x="134" y="40"/>
    </contour>
    <contour>
      <point x="532" y="0" type="line"/>
      <point x="698" y="0" type="line"/>
      <point x="698" y="516" type="line"/>
      <point x="532" y="516" type="line"/>
    </contour>
  </outline>
</glyph>
<glyph name="dvKhha" format="1">
	<advance width="854"/>
	<outline>
		<contour>
			<point x="426" y="76" type="curve" smooth="yes"/>
			<point x="377" y="76"/>
			<point x="346" y="43"/>
			<point x="346" y="-1" type="curve" smooth="yes"/>
			<point x="346" y="-43"/>
			<point x="377" y="-77"/>
			<point x="425" y="-77" type="curve" smooth="yes"/>
			<point x="475" y="-77"/>
			<point x="507" y="-43"/>
			<point x="507" y="-1" type="curve" smooth="yes"/>
			<point x="506" y="43"/>
			<point x="475" y="76"/>
		</contour>
	</outline>
</glyph>
<glyph name="dvKha" format="1">
  <advance width="854"/>
  <outline>
    <contour>
      <point x="246" y="574" type="line"/>
      <point x="246" y="478" type="line"/>
      <point x="864" y="478" type="line"/>
      <point x="864" y="574" type="line"/>
    </contour>
    <contour>
      <point x="560" y="70" type="curve" smooth="yes"/>
      <point x="587" y="70"/>
      <point x="604" y="76"/>
      <point x="624" y="90" type="curve"/>
      <point x="624" y="237" type="line"/>
      <point x="624" y="230"/>
      <point x="624" y="226"/>
      <point x="620" y="216" type="curve" smooth="yes"/>
      <point x="613" y="198"/>
      <point x="596" y="180"/>
      <point x="562" y="180" type="curve" smooth="yes"/>
      <point x="537" y="180"/>
      <point x="518" y="198"/>
      <point x="518" y="222" type="curve" smooth="yes"/>
      <point x="518" y="251"/>
      <point x="543" y="266"/>
      <point x="566" y="266" type="curve" smooth="yes"/>
      <point x="584" y="266"/>
      <point x="608" y="260"/>
      <point x="624" y="246" type="curve"/>
      <point x="631" y="341" type="line"/>
      <point x="604" y="366"/>
      <point x="574" y="378"/>
      <point x="538" y="378" type="curve" smooth="yes"/>
      <point x="448" y="378"/>
      <point x="392" y="312"/>
      <point x="392" y="236" type="curve" smooth="yes"/>
      <point x="392" y="126"/>
      <point x="474" y="70"/>
    </contour>
    <contour>
      <point x="624" y="0" type="line"/>
      <point x="790" y="0" type="line"/>
      <point x="790" y="516" type="line"/>
      <point x="624" y="516" type="line"/>
    </contour>
    <contour>
      <point x="204" y="484" type="line"/>
      <point x="209" y="456"/>
      <point x="210" y="430"/>
      <point x="210" y="408" type="curve" smooth="yes"/>
      <point x="210" y="346"/>
      <point x="190" y="314"/>
      <point x="166" y="298" type="curve"/>
      <point x="150" y="333"/>
      <point x="130" y="346"/>
      <point x="103" y="346" type="curve" smooth="yes"/>
      <point x="70" y="346"/>
      <point x="36" y="314"/>
      <point x="36" y="276" type="curve" smooth="yes"/>
      <point x="36" y="239"/>
      <point x="50" y="203"/>
      <point x="72" y="162" type="curve" smooth="yes"/>
      <point x="118" y="77"/>
      <point x="204" y="-6"/>
      <point x="270" y="-63" type="curve"/>
      <point x="354" y="31" type="line"/>
      <point x="284" y="80"/>
      <point x="248" y="114"/>
      <point x="214" y="154" type="curve"/>
      <point x="302" y="200"/>
      <point x="359" y="275"/>
      <point x="359" y="385" type="curve" smooth="yes"/>
      <point x="359" y="417"/>
      <point x="356" y="457"/>
      <point x="349" y="484" type="curve"/>
    </contour>
    <contour>
      <point x="-10" y="574" type="line"/>
      <point x="-10" y="478" type="line"/>
      <point x="452" y="478" type="line"/>
      <point x="452" y="574" type="line"/>
    </contour>
  </outline>
</glyph>
<glyph name="dvLa" format="1">
	<advance width="710"/>
	<outline>
		<contour>
			<point x="-10" y="574" type="line"/>
			<point x="-10" y="478" type="line"/>
			<point x="720" y="478" type="line"/>
			<point x="720" y="574" type="line"/>
		</contour>
		<contour>
			<point x="419" y="247" type="line"/>
			<point x="419" y="335"/>
			<point x="328" y="422"/>
			<point x="217" y="422" type="curve" smooth="yes"/>
			<point x="95" y="422"/>
			<point x="30" y="341"/>
			<point x="30" y="257" type="curve" smooth="yes"/>
			<point x="30" y="111"/>
			<point x="160" y="14"/>
			<point x="255" y="-35" type="curve"/>
			<point x="337" y="70" type="line"/>
			<point x="248" y="117"/>
			<point x="194" y="164"/>
			<point x="194" y="218" type="curve" smooth="yes"/>
			<point x="194" y="266"/>
			<point x="213" y="290"/>
			<point x="256" y="290" type="curve" smooth="yes"/>
			<point x="282" y="290"/>
			<point x="305" y="278"/>
			<point x="332" y="232" type="curve"/>
		</contour>
		<contour>
			<point x="378" y="110" type="line"/>
			<point x="436" y="174"/>
			<point x="491" y="227"/>
			<point x="532" y="256" type="curve"/>
			<point x="485" y="393" type="line"/>
			<point x="394" y="325"/>
			<point x="342" y="284"/>
			<point x="273" y="204" type="curve"/>
		</contour>
		<contour>
			<point x="480" y="0" type="line"/>
			<point x="646" y="0" type="line"/>
			<point x="646" y="496" type="line"/>
			<point x="480" y="496" type="line"/>
		</contour>
	</outline>
</glyph>
<glyph name="dvLlla" format="1">
	<advance width="802"/>
	<outline>
		<contour>
			<point x="544" y="269" type="curve" smooth="yes"/>
			<point x="580" y="269"/>
			<point x="612" y="241"/>
			<point x="612" y="205" type="curve" smooth="yes"/>
			<point x="612" y="161"/>
			<point x="585" y="135"/>
			<point x="549" y="135" type="curve" smooth="yes"/>
			<point x="510" y="135"/>
			<point x="462" y="144"/>
			<point x="424" y="177" type="curve"/>
			<point x="395" y="90" type="line"/>
			<point x="453" y="31"/>
			<point x="499" y="12"/>
			<point x="571" y="12" type="curve" smooth="yes"/>
			<point x="680" y="12"/>
			<point x="755" y="97"/>
			<point x="755" y="181" type="curve" smooth="yes"/>
			<point x="755" y="312"/>
			<point x="651" y="402"/>
			<point x="542" y="402" type="curve" smooth="yes"/>
			<point x="385" y="402"/>
			<point x="321" y="144"/>
			<point x="256" y="144" type="curve" smooth="yes"/>
			<point x="220" y="144"/>
			<point x="188" y="174"/>
			<point x="188" y="209" type="curve" smooth="yes"/>
			<point x="188" y="253"/>
			<point x="215" y="279"/>
			<point x="251" y="279" type="curve" smooth="yes"/>
			<point x="291" y="279"/>
			<point x="338" y="269"/>
			<point x="376" y="236" type="curve"/>
			<point x="406" y="324" type="line"/>
			<point x="348" y="383"/>
			<point x="301" y="402"/>
			<point x="229" y="402" type="curve" smooth="yes"/>
			<point x="120" y="402"/>
			<point x="45" y="316"/>
			<point x="45" y="233" type="curve" smooth="yes"/>
			<point x="45" y="102"/>
			<point x="149" y="12"/>
			<point x="258" y="12" type="curve" smooth="yes"/>
			<point x="415" y="12"/>
			<point x="480" y="269"/>
		</contour>
		<contour>
			<point x="0" y="574" type="line"/>
			<point x="0" y="478" type="line"/>
			<point x="683" y="478" type="line"/>
			<point x="683" y="574" type="line"/>
		</contour>
		<contour>
			<point x="524" y="324" type="line"/>
			<point x="670" y="324" type="line"/>
			<point x="670" y="506" type="line"/>
			<point x="524" y="506" type="line"/>
		</contour>
		<contour>
			<point x="400" y="6" type="curve" smooth="yes"/>
			<point x="351" y="6"/>
			<point x="320" y="-27"/>
			<point x="320" y="-71" type="curve" smooth="yes"/>
			<point x="320" y="-113"/>
			<point x="351" y="-147"/>
			<point x="399" y="-147" type="curve" smooth="yes"/>
			<point x="449" y="-147"/>
			<point x="481" y="-113"/>
			<point x="481" y="-71" type="curve" smooth="yes"/>
			<point x="480" y="-27"/>
			<point x="449" y="6"/>
		</contour>
	</outline>
</glyph>
<glyph name="dvLvocal" format="1">
  <advance width="811"/>
  <outline>
    <contour>
      <point x="-10" y="574" type="line"/>
      <point x="-10" y="478" type="line"/>
      <point x="822" y="478" type="line"/>
      <point x="822" y="574" type="line"/>
    </contour>
    <contour>
      <point x="494" y="304" type="line"/>
      <point x="660" y="310" type="line"/>
      <point x="660" y="496" type="line"/>
      <point x="494" y="496" type="line"/>
    </contour>
    <contour>
      <point x="626" y="217" type="curve" smooth="yes"/>
      <point x="626" y="158"/>
      <point x="564" y="107"/>
      <point x="486" y="67" type="curve"/>
      <point x="601" y="-39" type="line"/>
      <point x="693" y="14"/>
      <point x="768" y="91"/>
      <point x="768" y="178" type="curve" smooth="yes"/>
      <point x="768" y="305"/>
      <point x="672" y="402"/>
      <point x="541" y="402" type="curve" smooth="yes"/>
      <point x="412" y="402"/>
      <point x="343" y="304"/>
      <point x="293" y="180" type="curve"/>
      <point x="294" y="173" type="line"/>
      <point x="418" y="116" type="line"/>
      <point x="456" y="210"/>
      <point x="517" y="270"/>
      <point x="570" y="270" type="curve" smooth="yes"/>
      <point x="599" y="270"/>
      <point x="626" y="249"/>
    </contour>
    <contour>
      <point x="241" y="402" type="curve" smooth="yes"/>
      <point x="112" y="402"/>
      <point x="44" y="321"/>
      <point x="44" y="237" type="curve" smooth="yes"/>
      <point x="44" y="91"/>
      <point x="195" y="-6"/>
      <point x="309" y="-55" type="curve"/>
      <point x="371" y="50" type="line"/>
      <point x="270" y="97"/>
      <point x="208" y="144"/>
      <point x="208" y="198" type="curve" smooth="yes"/>
      <point x="208" y="246"/>
      <point x="230" y="270"/>
      <point x="280" y="270" type="curve" smooth="yes"/>
      <point x="306" y="270"/>
      <point x="329" y="258"/>
      <point x="356" y="212" type="curve"/>
      <point x="443" y="227" type="line"/>
      <point x="443" y="315"/>
      <point x="352" y="402"/>
    </contour>
  </outline>
</glyph>
<glyph name="dvNa" format="1">
	<advance width="606"/>
	<outline>
		<contour>
			<point x="-10" y="574" type="line"/>
			<point x="-10" y="478" type="line"/>
			<point x="616" y="478" type="line"/>
			<point x="616" y="574" type="line"/>
		</contour>
		<contour>
			<point x="376" y="367" type="line"/>
			<point x="97" y="367" type="line" smooth="yes"/>
			<point x="69" y="367"/>
			<point x="39" y="342"/>
			<point x="39" y="299" type="curve" smooth="yes"/>
			<point x="39" y="226"/>
			<point x="138" y="117"/>
			<point x="187" y="117" type="curve" smooth="yes"/>
			<point x="223" y="117"/>
			<point x="247" y="139"/>
			<point x="247" y="167" type="curve" smooth="yes"/>
			<point x="247" y="178"/>
			<point x="245" y="229"/>
			<point x="241" y="246" type="curve"/>
			<point x="376" y="246" type="line"/>
		</contour>
		<contour>
			<point x="376" y="0" type="line"/>
			<point x="542" y="0" type="line"/>
			<point x="542" y="516" type="line"/>
			<point x="376" y="516" type="line"/>
		</contour>
	</outline>
</glyph>
<glyph name="dvNukta" format="1">
	<outline>
		<contour>
			<point x="0" y="76" type="curve" smooth="yes"/>
			<point x="-49" y="76"/>
			<point x="-80" y="43"/>
			<point x="-80" y="-1" type="curve" smooth="yes"/>
			<point x="-80" y="-43"/>
			<point x="-49" y="-77"/>
			<point x="-1" y="-77" type="curve" smooth="yes"/>
			<point x="49" y="-77"/>
			<point x="81" y="-43"/>
			<point x="81" y="-1" type="curve" smooth="yes"/>
			<point x="80" y="43"/>
			<point x="49" y="76"/>
		</contour>
	</outline>
</glyph>
<glyph name="dvNya" format="1">
	<advance width="792"/>
	<outline>
		<contour>
			<point x="-10" y="574" type="line"/>
			<point x="-10" y="478" type="line"/>
			<point x="802" y="478" type="line"/>
			<point x="802" y="574" type="line"/>
		</contour>
		<contour>
			<point x="295" y="24" type="curve" smooth="yes"/>
			<point x="380" y="24"/>
			<point x="478" y="84"/>
			<point x="478" y="213" type="curve" smooth="yes"/>
			<point x="478" y="319"/>
			<point x="375" y="408"/>
			<point x="283" y="408" type="curve" smooth="yes"/>
			<point x="237" y="408"/>
			<point x="199" y="399"/>
			<point x="160" y="367" type="curve"/>
			<point x="241" y="266" type="line"/>
			<point x="259" y="286"/>
			<point x="277" y="294"/>
			<point x="293" y="294" type="curve" smooth="yes"/>
			<point x="320" y="294"/>
			<point x="344" y="271"/>
			<point x="344" y="244" type="curve" smooth="yes"/>
			<point x="344" y="185"/>
			<point x="319" y="158"/>
			<point x="276" y="158" type="curve" smooth="yes"/>
			<point x="206" y="158"/>
			<point x="134" y="252"/>
			<point x="75" y="386" type="curve"/>
			<point x="-22" y="329" type="line"/>
			<point x="38" y="187"/>
			<point x="139" y="24"/>
		</contour>
		<contour>
			<point x="591" y="326" type="line"/>
			<point x="572" y="260"/>
			<point x="522" y="256"/>
			<point x="496" y="256" type="curve" smooth="yes"/>
			<point x="481" y="256"/>
			<point x="468" y="259"/>
			<point x="456" y="263" type="curve"/>
			<point x="420" y="181" type="line"/>
			<point x="460" y="152"/>
			<point x="494" y="131"/>
			<point x="523" y="131" type="curve" smooth="yes"/>
			<point x="592" y="131"/>
			<point x="647" y="181"/>
			<point x="647" y="262" type="curve"/>
		</contour>
		<contour>
			<point x="562" y="0" type="line"/>
			<point x="728" y="0" type="line"/>
			<point x="728" y="506" type="line"/>
			<point x="562" y="506" type="line"/>
		</contour>
	</outline>
</glyph>
<glyph name="dvNna.copy_1" format="1">
  <advance width="744"/>
  <outline>
    <contour>
      <point x="-10" y="574" type="line"/>
      <point x="-10" y="478" type="line"/>
      <point x="754" y="478" type="line"/>
      <point x="754" y="574" type="line"/>
    </contour>
    <contour>
      <point x="244" y="122" type="curve" smooth="yes"/>
      <point x="356" y="122"/>
      <point x="434" y="183"/>
      <point x="434" y="330" type="curve" smooth="yes"/>
      <point x="434" y="488" type="line"/>
      <point x="290" y="488" type="line"/>
      <point x="290" y="322" type="line" smooth="yes"/>
      <point x="290" y="258"/>
      <point x="276" y="236"/>
      <point x="254" y="236" type="curve" smooth="yes"/>
      <point x="228" y="236"/>
      <point x="210" y="253"/>
      <point x="210" y="310" type="curve" smooth="yes"/>
      <point x="210" y="488" type="line"/>
      <point x="46" y="488" type="line"/>
      <point x="46" y="342" type="line" smooth="yes"/>
      <point x="46" y="190"/>
      <point x="130" y="122"/>
    </contour>
    <contour>
      <point x="514" y="0" type="line"/>
      <point x="680" y="0" type="line"/>
      <point x="680" y="516" type="line"/>
      <point x="514" y="516" type="line"/>
    </contour>
  </outline>
</glyph>
<glyph name="dvO" format="1">
  <advance width="1064"/>
  <outline>
    <contour>
      <point x="293" y="379" type="curve"/>
      <point x="322" y="274" type="line"/>
      <point x="340" y="274"/>
      <point x="364" y="252"/>
      <point x="364" y="212" type="curve" smooth="yes"/>
      <point x="364" y="175"/>
      <point x="344" y="146"/>
      <point x="291" y="146" type="curve" smooth="yes"/>
      <point x="221" y="146"/>
      <point x="178" y="196"/>
      <point x="118" y="333" type="curve"/>
      <point x="20" y="282" type="line"/>
      <point x="86" y="134"/>
      <point x="163" y="14"/>
      <point x="311" y="14" type="curve" smooth="yes"/>
      <point x="415" y="14"/>
      <point x="504" y="75"/>
      <point x="504" y="196" type="curve" smooth="yes"/>
      <point x="504" y="272"/>
      <point x="392" y="379"/>
    </contour>
    <contour>
      <point x="611" y="360" type="line"/>
      <point x="592" y="313"/>
      <point x="546" y="304"/>
      <point x="520" y="304" type="curve" smooth="yes"/>
      <point x="480" y="304"/>
      <point x="448" y="310"/>
      <point x="414" y="333" type="curve"/>
      <point x="388" y="261" type="line"/>
      <point x="454" y="214"/>
      <point x="498" y="194"/>
      <point x="543" y="194" type="curve" smooth="yes"/>
      <point x="602" y="194"/>
      <point x="647" y="222"/>
      <point x="667" y="296" type="curve"/>
    </contour>
    <contour>
      <point x="284" y="248" type="line"/>
      <point x="368" y="267"/>
      <point x="458" y="327"/>
      <point x="458" y="412" type="curve" smooth="yes"/>
      <point x="458" y="510"/>
      <point x="386" y="580"/>
      <point x="280" y="580" type="curve" smooth="yes"/>
      <point x="234" y="580"/>
      <point x="192" y="571"/>
      <point x="131" y="538" type="curve"/>
      <point x="194" y="435" type="line"/>
      <point x="225" y="454"/>
      <point x="247" y="466"/>
      <point x="276" y="466" type="curve" smooth="yes"/>
      <point x="306" y="466"/>
      <point x="320" y="447"/>
      <point x="320" y="422" type="curve" smooth="yes"/>
      <point x="320" y="387"/>
      <point x="282" y="369"/>
      <point x="235" y="357" type="curve"/>
    </contour>
    <contour>
      <point x="600" y="0" type="line"/>
      <point x="766" y="0" type="line"/>
      <point x="766" y="516" type="line"/>
      <point x="600" y="516" type="line"/>
    </contour>
    <contour>
      <point x="526" y="574" type="line"/>
      <point x="526" y="478" type="line"/>
      <point x="840" y="478" type="line"/>
      <point x="840" y="574" type="line"/>
    </contour>
    <contour>
      <point x="854" y="0" type="line"/>
      <point x="1020" y="0" type="line"/>
      <point x="1020" y="516" type="line"/>
      <point x="854" y="516" type="line"/>
    </contour>
    <contour>
      <point x="780" y="574" type="line"/>
      <point x="780" y="478" type="line"/>
      <point x="1094" y="478" type="line"/>
      <point x="1094" y="574" type="line"/>
    </contour>
    <contour>
      <point x="584" y="842" type="curve" smooth="yes"/>
      <point x="566" y="842"/>
      <point x="545" y="841"/>
      <point x="510" y="826" type="curve"/>
      <point x="548" y="712" type="line"/>
      <point x="579" y="722"/>
      <point x="604" y="726"/>
      <point x="623" y="726" type="curve" smooth="yes"/>
      <point x="726" y="726"/>
      <point x="802" y="636"/>
      <point x="866" y="554" type="curve"/>
      <point x="948" y="573" type="line"/>
      <point x="842" y="698"/>
      <point x="738" y="842"/>
    </contour>
  </outline>
</glyph>
<glyph name="dvOcandrasign" format="1">
	<advance width="294"/>
	<outline>
		<contour>
			<point x="64" y="0" type="line"/>
			<point x="230" y="0" type="line"/>
			<point x="230" y="516" type="line"/>
			<point x="64" y="516" type="line"/>
		</contour>
		<contour>
			<point x="-10" y="574" type="line"/>
			<point x="-10" y="478" type="line"/>
			<point x="304" y="478" type="line"/>
			<point x="304" y="574" type="line"/>
		</contour>
		<contour>
			<point x="108" y="624" type="curve" smooth="yes"/>
			<point x="204" y="624"/>
			<point x="258" y="678"/>
			<point x="258" y="760" type="curve" smooth="yes"/>
			<point x="258" y="784"/>
			<point x="256" y="798"/>
			<point x="248" y="826" type="curve"/>
			<point x="156" y="810" type="line"/>
			<point x="160" y="792"/>
			<point x="162" y="788"/>
			<point x="162" y="774" type="curve" smooth="yes"/>
			<point x="162" y="746"/>
			<point x="136" y="726"/>
			<point x="96" y="726" type="curve" smooth="yes"/>
			<point x="55" y="726"/>
			<point x="19" y="742"/>
			<point x="-27" y="794" type="curve"/>
			<point x="-98" y="742" type="line"/>
			<point x="-41" y="666"/>
			<point x="20" y="624"/>
		</contour>
	</outline>
</glyph>
<glyph name="dvOm" format="1">
	<advance width="940"/>
	<outline>
		<contour>
			<point x="539" y="262" type="line"/>
			<point x="605" y="152"/>
			<point x="675" y="116"/>
			<point x="741" y="116" type="curve" smooth="yes"/>
			<point x="830" y="116"/>
			<point x="908" y="186"/>
			<point x="908" y="294" type="curve" smooth="yes"/>
			<point x="908" y="402"/>
			<point x="819" y="486"/>
			<point x="716" y="486" type="curve" smooth="yes"/>
			<point x="590" y="486"/>
			<point x="526" y="294"/>
			<point x="469" y="294" type="curve" smooth="yes"/>
			<point x="448" y="294"/>
			<point x="423" y="305"/>
			<point x="398" y="321" type="curve"/>
			<point x="430" y="211" type="line"/>
			<point x="466" y="184"/>
			<point x="492" y="175"/>
			<point x="520" y="175" type="curve" smooth="yes"/>
			<point x="613" y="175"/>
			<point x="637" y="362"/>
			<point x="725" y="362" type="curve" smooth="yes"/>
			<point x="760" y="362"/>
			<point x="785" y="335"/>
			<point x="785" y="296" type="curve" smooth="yes"/>
			<point x="785" y="245"/>
			<point x="755" y="227"/>
			<point x="718" y="227" type="curve" smooth="yes"/>
			<point x="681" y="227"/>
			<point x="649" y="245"/>
			<point x="621" y="291" type="curve"/>
		</contour>
		<contour>
			<point x="544" y="514" type="curve" smooth="yes"/>
			<point x="652" y="514"/>
			<point x="714" y="576"/>
			<point x="714" y="670" type="curve" smooth="yes"/>
			<point x="714" y="698"/>
			<point x="710" y="714"/>
			<point x="702" y="746" type="curve"/>
			<point x="610" y="730" type="line"/>
			<point x="614" y="707"/>
			<point x="618" y="702"/>
			<point x="618" y="684" type="curve" smooth="yes"/>
			<point x="618" y="644"/>
			<point x="584" y="616"/>
			<point x="532" y="616" type="curve" smooth="yes"/>
			<point x="485" y="616"/>
			<point x="443" y="636"/>
			<point x="389" y="704" type="curve"/>
			<point x="318" y="652" type="line"/>
			<point x="381" y="564"/>
			<point x="448" y="514"/>
		</contour>
		<contour>
			<point x="293" y="359" type="curve"/>
			<point x="322" y="254" type="line"/>
			<point x="340" y="254"/>
			<point x="364" y="236"/>
			<point x="364" y="208" type="curve" smooth="yes"/>
			<point x="364" y="171"/>
			<point x="338" y="146"/>
			<point x="285" y="146" type="curve" smooth="yes"/>
			<point x="234" y="146"/>
			<point x="190" y="175"/>
			<point x="153" y="247" type="curve"/>
			<point x="136" y="276"/>
			<point x="127" y="296"/>
			<point x="112" y="333" type="curve"/>
			<point x="15" y="282" type="line"/>
			<point x="81" y="134"/>
			<point x="157" y="14"/>
			<point x="305" y="14" type="curve" smooth="yes"/>
			<point x="399" y="14"/>
			<point x="484" y="71"/>
			<point x="484" y="192" type="curve" smooth="yes"/>
			<point x="484" y="260"/>
			<point x="382" y="359"/>
		</contour>
		<contour>
			<point x="274" y="228" type="line"/>
			<point x="353" y="247"/>
			<point x="438" y="307"/>
			<point x="438" y="391" type="curve" smooth="yes"/>
			<point x="438" y="490"/>
			<point x="354" y="560"/>
			<point x="264" y="560" type="curve" smooth="yes"/>
			<point x="214" y="560"/>
			<point x="172" y="551"/>
			<point x="111" y="510" type="curve"/>
			<point x="174" y="405" type="line"/>
			<point x="208" y="430"/>
			<point x="233" y="446"/>
			<point x="271" y="446" type="curve" smooth="yes"/>
			<point x="302" y="446"/>
			<point x="320" y="426"/>
			<point x="320" y="400" type="curve" smooth="yes"/>
			<point x="320" y="367"/>
			<point x="277" y="349"/>
			<point x="225" y="337" type="curve"/>
		</contour>
		<contour>
			<point x="520" y="791" type="curve" smooth="yes"/>
			<point x="481" y="791"/>
			<point x="456" y="764"/>
			<point x="456" y="729" type="curve" smooth="yes"/>
			<point x="456" y="696"/>
			<point x="481" y="668"/>
			<point x="519" y="668" type="curve" smooth="yes"/>
			<point x="559" y="668"/>
			<point x="585" y="696"/>
			<point x="585" y="729" type="curve" smooth="yes"/>
			<point x="584" y="764"/>
			<point x="559" y="791"/>
		</contour>
	</outline>
</glyph>
<glyph name="dvOshortsign" format="1">
	<advance width="294"/>
	<outline>
		<contour>
			<point x="64" y="0" type="line"/>
			<point x="230" y="0" type="line"/>
			<point x="230" y="516" type="line"/>
			<point x="64" y="516" type="line"/>
		</contour>
		<contour>
			<point x="-10" y="574" type="line"/>
			<point x="-10" y="478" type="line"/>
			<point x="304" y="478" type="line"/>
			<point x="304" y="574" type="line"/>
		</contour>
		<contour>
			<point x="-274" y="783" type="line"/>
			<point x="-234" y="688"/>
			<point x="-183" y="654"/>
			<point x="-123" y="654" type="curve" smooth="yes"/>
			<point x="-84" y="654"/>
			<point x="-59" y="664"/>
			<point x="-28" y="664" type="curve" smooth="yes"/>
			<point x="17" y="664"/>
			<point x="50" y="644"/>
			<point x="76" y="554" type="curve"/>
			<point x="148" y="572" type="line"/>
			<point x="103" y="695"/>
			<point x="80" y="770"/>
			<point x="-31" y="770" type="curve" smooth="yes"/>
			<point x="-72" y="770"/>
			<point x="-105" y="760"/>
			<point x="-135" y="760" type="curve" smooth="yes"/>
			<point x="-161" y="760"/>
			<point x="-190" y="766"/>
			<point x="-222" y="817" type="curve"/>
		</contour>
	</outline>
</glyph>
<glyph name="dvOsign" format="1">
	<advance width="294"/>
	<outline>
		<contour>
			<point x="64" y="0" type="line"/>
			<point x="230" y="0" type="line"/>
			<point x="230" y="516" type="line"/>
			<point x="64" y="516" type="line"/>
		</contour>
		<contour>
			<point x="-10" y="574" type="line"/>
			<point x="-10" y="478" type="line"/>
			<point x="304" y="478" type="line"/>
			<point x="304" y="574" type="line"/>
		</contour>
		<contour>
			<point x="-206" y="842" type="curve" smooth="yes"/>
			<point x="-224" y="842"/>
			<point x="-245" y="841"/>
			<point x="-280" y="826" type="curve"/>
			<point x="-242" y="712" type="line"/>
			<point x="-211" y="722"/>
			<point x="-186" y="726"/>
			<point x="-167" y="726" type="curve" smooth="yes"/>
			<point x="-64" y="726"/>
			<point x="12" y="636"/>
			<point x="76" y="554" type="curve"/>
			<point x="158" y="573" type="line"/>
			<point x="52" y="698"/>
			<point x="-52" y="842"/>
		</contour>
	</outline>
</glyph>
<glyph name="dvPa" format="1">
	<advance width="606"/>
	<outline>
		<contour>
			<point x="-10" y="574" type="line"/>
			<point x="-10" y="478" type="line"/>
			<point x="616" y="478" type="line"/>
			<point x="616" y="574" type="line"/>
		</contour>
		<contour>
			<point x="302" y="260" type="curve" smooth="yes"/>
			<point x="263" y="260"/>
			<point x="231" y="285"/>
			<point x="231" y="366" type="curve" smooth="yes"/>
			<point x="231" y="488" type="line"/>
			<point x="64" y="488" type="line"/>
			<point x="64" y="379" type="line" smooth="yes"/>
			<point x="64" y="220"/>
			<point x="160" y="146"/>
			<point x="278" y="146" type="curve" smooth="yes"/>
			<point x="309" y="146"/>
			<point x="350" y="154"/>
			<point x="376" y="166" type="curve"/>
			<point x="376" y="339" type="line"/>
			<point x="376" y="325"/>
			<point x="376" y="314"/>
			<point x="371" y="301" type="curve" smooth="yes"/>
			<point x="362" y="278"/>
			<point x="338" y="260"/>
		</contour>
		<contour>
			<point x="376" y="0" type="line"/>
			<point x="542" y="0" type="line"/>
			<point x="542" y="516" type="line"/>
			<point x="376" y="516" type="line"/>
		</contour>
	</outline>
</glyph>
<glyph name="dvQa" format="1">
  <advance width="754"/>
  <outline>
    <contour>
      <point x="460" y="195" type="line"/>
      <point x="498" y="243"/>
      <point x="530" y="272"/>
      <point x="570" y="272" type="curve" smooth="yes"/>
      <point x="594" y="272"/>
      <point x="606" y="256"/>
      <point x="606" y="229" type="curve" smooth="yes"/>
      <point x="606" y="203"/>
      <point x="582" y="154"/>
      <point x="535" y="110" type="curve"/>
      <point x="672" y="27" type="line"/>
      <point x="726" y="88"/>
      <point x="756" y="164"/>
      <point x="756" y="222" type="curve" smooth="yes"/>
      <point x="756" y="316"/>
      <point x="691" y="400"/>
      <point x="584" y="400" type="curve" smooth="yes"/>
      <point x="530" y="400"/>
      <point x="486" y="375"/>
      <point x="460" y="351" type="curve"/>
    </contour>
    <contour>
      <point x="334" y="497" type="line"/>
      <point x="334" y="0" type="line"/>
      <point x="490" y="0" type="line"/>
      <point x="490" y="497" type="line"/>
    </contour>
    <contour>
      <point x="-10" y="574" type="line"/>
      <point x="-10" y="478" type="line"/>
      <point x="794" y="478" type="line"/>
      <point x="794" y="574" type="line"/>
    </contour>
    <contour>
      <point x="232" y="50" type="curve" smooth="yes"/>
      <point x="265" y="50"/>
      <point x="307" y="62"/>
      <point x="334" y="86" type="curve"/>
      <point x="334" y="251" type="line" smooth="yes"/>
      <point x="334" y="261"/>
      <point x="334" y="244"/>
      <point x="328" y="224" type="curve" smooth="yes"/>
      <point x="321" y="198"/>
      <point x="288" y="170"/>
      <point x="244" y="170" type="curve" smooth="yes"/>
      <point x="204" y="170"/>
      <point x="178" y="197"/>
      <point x="178" y="238" type="curve" smooth="yes"/>
      <point x="178" y="280"/>
      <point x="208" y="304"/>
      <point x="258" y="304" type="curve" smooth="yes"/>
      <point x="278" y="304"/>
      <point x="312" y="294"/>
      <point x="334" y="284" type="curve"/>
      <point x="341" y="377" type="line"/>
      <point x="307" y="412"/>
      <point x="266" y="428"/>
      <point x="217" y="428" type="curve" smooth="yes"/>
      <point x="97" y="428"/>
      <point x="34" y="342"/>
      <point x="34" y="246" type="curve" smooth="yes"/>
      <point x="34" y="118"/>
      <point x="126" y="50"/>
    </contour>
    <contour>
      <point x="170" y="6" type="curve" smooth="yes"/>
      <point x="121" y="6"/>
      <point x="90" y="-27"/>
      <point x="90" y="-71" type="curve" smooth="yes"/>
      <point x="90" y="-113"/>
      <point x="121" y="-147"/>
      <point x="169" y="-147" type="curve" smooth="yes"/>
      <point x="219" y="-147"/>
      <point x="251" y="-113"/>
      <point x="251" y="-71" type="curve" smooth="yes"/>
      <point x="250" y="-27"/>
      <point x="219" y="6"/>
    </contour>
  </outline>
</glyph>
<glyph name="dvRa" format="1">
	<advance width="442"/>
	<outline>
		<contour>
			<point x="204" y="484" type="line"/>
			<point x="209" y="456"/>
			<point x="210" y="430"/>
			<point x="210" y="408" type="curve" smooth="yes"/>
			<point x="210" y="346"/>
			<point x="190" y="314"/>
			<point x="166" y="298" type="curve"/>
			<point x="150" y="333"/>
			<point x="130" y="346"/>
			<point x="103" y="346" type="curve" smooth="yes"/>
			<point x="70" y="346"/>
			<point x="36" y="314"/>
			<point x="36" y="276" type="curve" smooth="yes"/>
			<point x="36" y="239"/>
			<point x="50" y="203"/>
			<point x="72" y="162" type="curve" smooth="yes"/>
			<point x="118" y="77"/>
			<point x="204" y="-6"/>
			<point x="270" y="-63" type="curve"/>
			<point x="354" y="31" type="line"/>
			<point x="284" y="80"/>
			<point x="248" y="114"/>
			<point x="214" y="154" type="curve"/>
			<point x="302" y="200"/>
			<point x="359" y="275"/>
			<point x="359" y="385" type="curve" smooth="yes"/>
			<point x="359" y="417"/>
			<point x="356" y="457"/>
			<point x="349" y="484" type="curve"/>
		</contour>
		<contour>
			<point x="-10" y="574" type="line"/>
			<point x="-10" y="478" type="line"/>
			<point x="452" y="478" type="line"/>
			<point x="452" y="574" type="line"/>
		</contour>
	</outline>
</glyph>
<glyph name="dvReph" format="1">
	<outline>
		<contour>
			<point x="-268" y="694" type="curve" smooth="yes"/>
			<point x="-268" y="647"/>
			<point x="-245" y="593"/>
			<point x="-190" y="556" type="curve"/>
			<point x="-62" y="556" type="line"/>
			<point x="-118" y="587"/>
			<point x="-132" y="623"/>
			<point x="-132" y="652" type="curve" smooth="yes"/>
			<point x="-132" y="680"/>
			<point x="-114" y="692"/>
			<point x="-90" y="692" type="curve" smooth="yes"/>
			<point x="-77" y="692"/>
			<point x="-54" y="683"/>
			<point x="-36" y="666" type="curve"/>
			<point x="26" y="732" type="line"/>
			<point x="-16" y="784"/>
			<point x="-58" y="814"/>
			<point x="-120" y="814" type="curve" smooth="yes"/>
			<point x="-214" y="814"/>
			<point x="-268" y="756"/>
		</contour>
	</outline>
</glyph>
<glyph name="dvRha" format="1">
  <advance width="494"/>
  <outline>
    <contour>
      <point x="313" y="-1" type="line"/>
      <point x="454" y="-1"/>
      <point x="519" y="87"/>
      <point x="519" y="145" type="curve" smooth="yes"/>
      <point x="519" y="218"/>
      <point x="466" y="265"/>
      <point x="382" y="265" type="curve" smooth="yes"/>
      <point x="323" y="265"/>
      <point x="264" y="238"/>
      <point x="264" y="180" type="curve" smooth="yes"/>
      <point x="264" y="151"/>
      <point x="276" y="127"/>
      <point x="300" y="106" type="curve"/>
      <point x="375" y="108" type="line"/>
      <point x="365" y="125"/>
      <point x="359" y="143"/>
      <point x="359" y="165" type="curve" smooth="yes"/>
      <point x="359" y="176"/>
      <point x="364" y="195"/>
      <point x="388" y="195" type="curve" smooth="yes"/>
      <point x="407" y="195"/>
      <point x="414" y="185"/>
      <point x="414" y="169" type="curve" smooth="yes"/>
      <point x="414" y="131"/>
      <point x="350" y="122"/>
      <point x="300" y="122" type="curve"/>
    </contour>
    <contour>
      <point x="-10" y="574" type="line"/>
      <point x="-10" y="478" type="line"/>
      <point x="504" y="478" type="line"/>
      <point x="504" y="574" type="line"/>
    </contour>
    <contour>
      <point x="292" y="-2" type="curve" smooth="yes"/>
      <point x="346" y="-2"/>
      <point x="402" y="9"/>
      <point x="450" y="42" type="curve"/>
      <point x="398" y="138" type="line"/>
      <point x="364" y="127"/>
      <point x="332" y="121"/>
      <point x="290" y="121" type="curve" smooth="yes"/>
      <point x="230" y="121"/>
      <point x="188" y="160"/>
      <point x="188" y="212" type="curve" smooth="yes"/>
      <point x="188" y="271"/>
      <point x="226" y="294"/>
      <point x="280" y="294" type="curve" smooth="yes"/>
      <point x="434" y="294" type="line"/>
      <point x="434" y="488" type="line"/>
      <point x="268" y="488" type="line"/>
      <point x="268" y="416" type="line"/>
      <point x="243" y="416" type="line" smooth="yes"/>
      <point x="140" y="416"/>
      <point x="44" y="355"/>
      <point x="44" y="216" type="curve" smooth="yes"/>
      <point x="44" y="74"/>
      <point x="162" y="-2"/>
    </contour>
    <contour>
      <point x="270" y="-84" type="curve" smooth="yes"/>
      <point x="221" y="-84"/>
      <point x="190" y="-117"/>
      <point x="190" y="-161" type="curve" smooth="yes"/>
      <point x="190" y="-203"/>
      <point x="221" y="-237"/>
      <point x="269" y="-237" type="curve" smooth="yes"/>
      <point x="319" y="-237"/>
      <point x="351" y="-203"/>
      <point x="351" y="-161" type="curve" smooth="yes"/>
      <point x="350" y="-117"/>
      <point x="319" y="-84"/>
    </contour>
  </outline>
</glyph>
<glyph name="dvRvocal" format="1">
  <advance width="754"/>
  <outline>
    <contour>
      <point x="294" y="11" type="line"/>
      <point x="368" y="-13" type="line"/>
      <point x="377" y="-11" type="line"/>
      <point x="377" y="235" type="line"/>
      <point x="420" y="215" type="line"/>
      <point x="431" y="212"/>
      <point x="443" y="210"/>
      <point x="456" y="210" type="curve" smooth="yes"/>
      <point x="503" y="210"/>
      <point x="553" y="233"/>
      <point x="577" y="281" type="curve"/>
      <point x="597" y="270"/>
      <point x="611" y="259"/>
      <point x="611" y="241" type="curve" smooth="yes"/>
      <point x="611" y="175"/>
      <point x="482" y="160"/>
      <point x="482" y="88" type="curve" smooth="yes"/>
      <point x="482" y="66"/>
      <point x="484" y="53"/>
      <point x="499" y="31" type="curve"/>
      <point x="512" y="15"/>
      <point x="517" y="7"/>
      <point x="535" y="-6" type="curve"/>
      <point x="570" y="-28"/>
      <point x="587" y="-29"/>
      <point x="616" y="-29" type="curve" smooth="yes"/>
      <point x="651" y="-29"/>
      <point x="688" y="-13"/>
      <point x="712" y="18" type="curve"/>
      <point x="677" y="68" type="line"/>
      <point x="668" y="70" type="line"/>
      <point x="644" y="44"/>
      <point x="613" y="31"/>
      <point x="587" y="31" type="curve" smooth="yes"/>
      <point x="572" y="31"/>
      <point x="558" y="33"/>
      <point x="548" y="37" type="curve"/>
      <point x="543" y="48"/>
      <point x="543" y="53"/>
      <point x="543" y="63" type="curve" smooth="yes"/>
      <point x="543" y="112"/>
      <point x="681" y="153"/>
      <point x="681" y="215" type="curve" smooth="yes"/>
      <point x="681" y="279"/>
      <point x="634" y="287"/>
      <point x="589" y="322" type="curve"/>
      <point x="590" y="329"/>
      <point x="591" y="337"/>
      <point x="591" y="344" type="curve" smooth="yes"/>
      <point x="591" y="388"/>
      <point x="576" y="420"/>
      <point x="543" y="443" type="curve"/>
      <point x="526" y="445" type="line"/>
      <point x="512" y="438"/>
      <point x="467" y="407"/>
      <point x="460" y="386" type="curve"/>
      <point x="475" y="353"/>
      <point x="496" y="332"/>
      <point x="518" y="316" type="curve"/>
      <point x="501" y="283"/>
      <point x="466" y="270"/>
      <point x="426" y="270" type="curve" smooth="yes"/>
      <point x="409" y="270"/>
      <point x="394" y="271"/>
      <point x="377" y="276" type="curve"/>
      <point x="377" y="504" type="line"/>
      <point x="764" y="504" type="line"/>
      <point x="767" y="513" type="line"/>
      <point x="723" y="570" type="line"/>
      <point x="-37" y="570" type="line"/>
      <point x="-40" y="559" type="line"/>
      <point x="4" y="504" type="line"/>
      <point x="294" y="504" type="line"/>
      <point x="294" y="326" type="line"/>
      <point x="274" y="341"/>
      <point x="258" y="356"/>
      <point x="237" y="370" type="curve"/>
      <point x="204" y="381"/>
      <point x="173" y="388"/>
      <point x="143" y="388" type="curve" smooth="yes"/>
      <point x="99" y="388"/>
      <point x="57" y="374"/>
      <point x="11" y="342" type="curve"/>
      <point x="13" y="335" type="line"/>
      <point x="61" y="276" type="line"/>
      <point x="86" y="299"/>
      <point x="125" y="312"/>
      <point x="169" y="312" type="curve" smooth="yes"/>
      <point x="209" y="312"/>
      <point x="252" y="302"/>
      <point x="293" y="278" type="curve"/>
      <point x="209" y="231"/>
      <point x="140" y="177"/>
      <point x="75" y="98" type="curve"/>
      <point x="77" y="90" type="line"/>
      <point x="138" y="46" type="line"/>
      <point x="196" y="116"/>
      <point x="240" y="155"/>
      <point x="294" y="191" type="curve"/>
    </contour>
  </outline>
</glyph>
<glyph name="dvRvocalsign" format="1">
  <advance width="0"/>
  <outline>
    <contour>
      <point x="-166" y="82" type="line"/>
      <point x="-228" y="60"/>
      <point x="-283" y="11"/>
      <point x="-283" y="-54" type="curve" smooth="yes"/>
      <point x="-283" y="-161"/>
      <point x="-206" y="-214"/>
      <point x="-113" y="-214" type="curve" smooth="yes"/>
      <point x="-87" y="-214"/>
      <point x="-40" y="-206"/>
      <point x="8" y="-178" type="curve"/>
      <point x="-44" y="-72" type="line"/>
      <point x="-66" y="-89"/>
      <point x="-96" y="-100"/>
      <point x="-121" y="-100" type="curve" smooth="yes"/>
      <point x="-145" y="-100"/>
      <point x="-163" y="-84"/>
      <point x="-163" y="-58" type="curve" smooth="yes"/>
      <point x="-163" y="-25"/>
      <point x="-118" y="-10"/>
      <point x="-64" y="0" type="curve"/>
    </contour>
  </outline>
</glyph>
<glyph name="dvSha.MAR" format="1">
	<advance width="724"/>
	<outline>
		<contour>
			<point x="89" y="190" type="curve"/>
			<point x="134" y="83"/>
			<point x="210" y="2"/>
			<point x="290" y="-38" type="curve"/>
			<point x="371" y="63" type="line"/>
			<point x="312" y="82"/>
			<point x="255" y="119"/>
			<point x="227" y="155" type="curve" smooth="yes"/>
			<point x="187" y="212"/>
			<point x="164" y="278"/>
			<point x="90" y="278" type="curve" smooth="yes"/>
			<point x="55" y="278"/>
			<point x="20" y="250"/>
			<point x="20" y="208" type="curve" smooth="yes"/>
			<point x="20" y="144"/>
			<point x="96" y="96"/>
			<point x="152" y="96" type="curve" smooth="yes"/>
			<point x="269" y="96"/>
			<point x="400" y="234"/>
			<point x="400" y="400" type="curve" smooth="yes"/>
			<point x="400" y="499"/>
			<point x="334" y="586"/>
			<point x="225" y="586" type="curve" smooth="yes"/>
			<point x="138" y="586"/>
			<point x="84" y="524"/>
			<point x="84" y="457" type="curve" smooth="yes"/>
			<point x="84" y="384"/>
			<point x="150" y="326"/>
			<point x="259" y="283" type="curve"/>
			<point x="293" y="362" type="line"/>
			<point x="232" y="388"/>
			<point x="194" y="420"/>
			<point x="194" y="458" type="curve" smooth="yes"/>
			<point x="194" y="482"/>
			<point x="208" y="496"/>
			<point x="223" y="496" type="curve" smooth="yes"/>
			<point x="242" y="496"/>
			<point x="268" y="478"/>
			<point x="268" y="416" type="curve" smooth="yes"/>
			<point x="268" y="296"/>
			<point x="212" y="214"/>
		</contour>
	</outline>
</glyph>
<glyph name="dvSsa" format="1">
  <advance width="616"/>
  <outline>
    <contour>
      <point x="463" y="242" type="line"/>
      <point x="256" y="500" type="line"/>
      <point x="198" y="477" type="line"/>
      <point x="408" y="217" type="line"/>
    </contour>
    <contour>
      <point x="0" y="574" type="line"/>
      <point x="0" y="478" type="line"/>
      <point x="626" y="478" type="line"/>
      <point x="626" y="574" type="line"/>
    </contour>
    <contour>
      <point x="312" y="260" type="curve" smooth="yes"/>
      <point x="273" y="260"/>
      <point x="241" y="285"/>
      <point x="241" y="366" type="curve" smooth="yes"/>
      <point x="241" y="488" type="line"/>
      <point x="74" y="488" type="line"/>
      <point x="74" y="379" type="line" smooth="yes"/>
      <point x="74" y="220"/>
      <point x="170" y="146"/>
      <point x="288" y="146" type="curve" smooth="yes"/>
      <point x="319" y="146"/>
      <point x="360" y="154"/>
      <point x="386" y="166" type="curve"/>
      <point x="386" y="339" type="line"/>
      <point x="386" y="325"/>
      <point x="386" y="314"/>
      <point x="381" y="301" type="curve" smooth="yes"/>
      <point x="372" y="278"/>
      <point x="348" y="260"/>
    </contour>
    <contour>
      <point x="386" y="0" type="line"/>
      <point x="552" y="0" type="line"/>
      <point x="552" y="516" type="line"/>
      <point x="386" y="516" type="line"/>
    </contour>
  </outline>
</glyph>
<glyph name="dvTa" format="1">
  <advance width="606"/>
  <outline>
    <contour>
      <point x="-10" y="574" type="line"/>
      <point x="-10" y="478" type="line"/>
      <point x="616" y="478" type="line"/>
      <point x="616" y="574" type="line"/>
    </contour>
    <contour>
      <point x="376" y="377" type="line"/>
      <point x="314" y="380"/>
      <point x="281" y="381"/>
      <point x="262" y="381" type="curve" smooth="yes"/>
      <point x="102" y="381"/>
      <point x="44" y="326"/>
      <point x="44" y="227" type="curve" smooth="yes"/>
      <point x="44" y="132"/>
      <point x="114" y="28"/>
      <point x="180" y="-35" type="curve"/>
      <point x="292" y="42" type="line"/>
      <point x="252" y="73"/>
      <point x="208" y="136"/>
      <point x="208" y="188" type="curve" smooth="yes"/>
      <point x="208" y="234"/>
      <point x="228" y="256"/>
      <point x="284" y="260" type="curve"/>
      <point x="303" y="260"/>
      <point x="328" y="258"/>
      <point x="376" y="254" type="curve"/>
    </contour>
    <contour>
      <point x="376" y="0" type="line"/>
      <point x="542" y="0" type="line"/>
      <point x="542" y="506" type="line"/>
      <point x="376" y="506" type="line"/>
    </contour>
  </outline>
</glyph>
<glyph name="dvTtha" format="1">
  <advance width="563"/>
  <outline>
    <contour>
      <point x="-10" y="574" type="line"/>
      <point x="-10" y="478" type="line"/>
      <point x="573" y="478" type="line"/>
      <point x="573" y="574" type="line"/>
    </contour>
    <contour>
      <point x="282" y="-2" type="curve" smooth="yes"/>
      <point x="418" y="-2"/>
      <point x="520" y="80"/>
      <point x="520" y="211" type="curve" smooth="yes"/>
      <point x="520" y="294"/>
      <point x="476" y="347"/>
      <point x="405" y="396" type="curve"/>
      <point x="324" y="300" type="line"/>
      <point x="356" y="279"/>
      <point x="376" y="250"/>
      <point x="376" y="216" type="curve" smooth="yes"/>
      <point x="376" y="166"/>
      <point x="339" y="131"/>
      <point x="280" y="131" type="curve" smooth="yes"/>
      <point x="226" y="131"/>
      <point x="188" y="166"/>
      <point x="188" y="212" type="curve" smooth="yes"/>
      <point x="188" y="271"/>
      <point x="226" y="294"/>
      <point x="298" y="294" type="curve" smooth="yes"/>
      <point x="434" y="294" type="line"/>
      <point x="434" y="488" type="line"/>
      <point x="268" y="488" type="line"/>
      <point x="268" y="416" type="line"/>
      <point x="263" y="416" type="line" smooth="yes"/>
      <point x="150" y="416"/>
      <point x="44" y="355"/>
      <point x="44" y="216" type="curve" smooth="yes"/>
      <point x="44" y="74"/>
      <point x="157" y="-2"/>
    </contour>
  </outline>
</glyph>
<glyph name="dvUu" format="1">
	<advance width="790"/>
	<outline>
		<contour>
			<point x="136" y="574" type="line"/>
			<point x="136" y="478" type="line"/>
			<point x="800" y="478" type="line"/>
			<point x="800" y="574" type="line"/>
		</contour>
		<contour>
			<point x="460" y="175" type="line"/>
			<point x="495" y="211"/>
			<point x="524" y="232"/>
			<point x="560" y="232" type="curve" smooth="yes"/>
			<point x="584" y="232"/>
			<point x="596" y="217"/>
			<point x="596" y="189" type="curve" smooth="yes"/>
			<point x="596" y="163"/>
			<point x="571" y="114"/>
			<point x="525" y="70" type="curve"/>
			<point x="662" y="-13" type="line"/>
			<point x="716" y="48"/>
			<point x="746" y="124"/>
			<point x="746" y="182" type="curve" smooth="yes"/>
			<point x="746" y="276"/>
			<point x="681" y="360"/>
			<point x="574" y="360" type="curve" smooth="yes"/>
			<point x="510" y="360"/>
			<point x="480" y="348"/>
			<point x="430" y="311" type="curve"/>
		</contour>
		<contour>
			<point x="293" y="379" type="curve"/>
			<point x="322" y="274" type="line"/>
			<point x="340" y="274"/>
			<point x="364" y="252"/>
			<point x="364" y="212" type="curve" smooth="yes"/>
			<point x="364" y="175"/>
			<point x="344" y="146"/>
			<point x="291" y="146" type="curve" smooth="yes"/>
			<point x="221" y="146"/>
			<point x="178" y="196"/>
			<point x="118" y="333" type="curve"/>
			<point x="20" y="282" type="line"/>
			<point x="86" y="134"/>
			<point x="163" y="14"/>
			<point x="311" y="14" type="curve" smooth="yes"/>
			<point x="415" y="14"/>
			<point x="504" y="75"/>
			<point x="504" y="196" type="curve" smooth="yes"/>
			<point x="504" y="292"/>
			<point x="392" y="379"/>
		</contour>
		<contour>
			<point x="284" y="248" type="line"/>
			<point x="368" y="267"/>
			<point x="458" y="327"/>
			<point x="458" y="412" type="curve" smooth="yes"/>
			<point x="458" y="498"/>
			<point x="382" y="560"/>
			<point x="270" y="560" type="curve"/>
			<point x="276" y="486" type="line"/>
			<point x="314" y="466"/>
			<point x="320" y="447"/>
			<point x="320" y="422" type="curve" smooth="yes"/>
			<point x="320" y="387"/>
			<point x="282" y="369"/>
			<point x="235" y="357" type="curve"/>
		</contour>
		<contour>
			<point x="-10" y="574" type="line"/>
			<point x="-10" y="478" type="line"/>
			<point x="564" y="478" type="line"/>
			<point x="564" y="574" type="line"/>
		</contour>
	</outline>
</glyph>
<glyph name="dvUusign" format="1">
	<outline>
		<contour>
			<point x="120" y="-202" type="line"/>
			<point x="28" y="-84"/>
			<point x="-56" y="-40"/>
			<point x="-146" y="-40" type="curve" smooth="yes"/>
			<point x="-222" y="-40"/>
			<point x="-304" y="-90"/>
			<point x="-304" y="-176" type="curve" smooth="yes"/>
			<point x="-304" y="-262"/>
			<point x="-236" y="-306"/>
			<point x="-154" y="-306" type="curve" smooth="yes"/>
			<point x="-132" y="-306"/>
			<point x="-98" y="-300"/>
			<point x="-58" y="-280" type="curve"/>
			<point x="-104" y="-194" type="line"/>
			<point x="-120" y="-205"/>
			<point x="-141" y="-212"/>
			<point x="-160" y="-212" type="curve" smooth="yes"/>
			<point x="-189" y="-212"/>
			<point x="-208" y="-200"/>
			<point x="-208" y="-180" type="curve" smooth="yes"/>
			<point x="-208" y="-159"/>
			<point x="-176" y="-142"/>
			<point x="-134" y="-142" type="curve" smooth="yes"/>
			<point x="-78" y="-142"/>
			<point x="-12" y="-166"/>
			<point x="52" y="-258" type="curve"/>
		</contour>
	</outline>
</glyph>
<glyph name="dvUsign.a" format="1">
  <advance width="0"/>
  <outline>
    <contour>
      <point x="-424" y="-144" type="line"/>
      <point x="-332" y="-262"/>
      <point x="-248" y="-306"/>
      <point x="-158" y="-306" type="curve" smooth="yes"/>
      <point x="-82" y="-306"/>
      <point x="0" y="-256"/>
      <point x="0" y="-170" type="curve" smooth="yes"/>
      <point x="0" y="-84"/>
      <point x="-68" y="-40"/>
      <point x="-150" y="-40" type="curve" smooth="yes"/>
      <point x="-172" y="-40"/>
      <point x="-206" y="-46"/>
      <point x="-246" y="-66" type="curve"/>
      <point x="-200" y="-152" type="line"/>
      <point x="-184" y="-141"/>
      <point x="-163" y="-134"/>
      <point x="-144" y="-134" type="curve" smooth="yes"/>
      <point x="-115" y="-134"/>
      <point x="-96" y="-146"/>
      <point x="-96" y="-166" type="curve" smooth="yes"/>
      <point x="-96" y="-187"/>
      <point x="-128" y="-204"/>
      <point x="-170" y="-204" type="curve" smooth="yes"/>
      <point x="-226" y="-204"/>
      <point x="-292" y="-180"/>
      <point x="-356" y="-88" type="curve"/>
    </contour>
  </outline>
</glyph>
<glyph name="dvVirama" format="1">
  <advance width="0"/>
  <outline>
    <contour>
      <point x="-200" y="-43" type="curve" smooth="yes"/>
      <point x="-222" y="-43"/>
      <point x="-248" y="-44"/>
      <point x="-293" y="-59" type="curve"/>
      <point x="-257" y="-173" type="line"/>
      <point x="-218" y="-163"/>
      <point x="-185" y="-157"/>
      <point x="-161" y="-157" type="curve" smooth="yes"/>
      <point x="-106" y="-157"/>
      <point x="-38" y="-196"/>
      <point x="26" y="-270" type="curve"/>
      <point x="84" y="-211" type="line"/>
      <point x="-11" y="-114"/>
      <point x="-92" y="-43"/>
    </contour>
  </outline>
</glyph>
<glyph name="dvVisarga" format="1">
  <advance width="260"/>
  <outline>
    <contour>
      <point x="139" y="312" type="curve" smooth="yes"/>
      <point x="193" y="312"/>
      <point x="229" y="351"/>
      <point x="229" y="403" type="curve" smooth="yes"/>
      <point x="228" y="458"/>
      <point x="193" y="495"/>
      <point x="140" y="495" type="curve" smooth="yes"/>
      <point x="87" y="495"/>
      <point x="50" y="457"/>
      <point x="50" y="403" type="curve" smooth="yes"/>
      <point x="50" y="351"/>
      <point x="87" y="312"/>
    </contour>
    <contour>
      <point x="139" y="-11" type="curve" smooth="yes"/>
      <point x="193" y="-11"/>
      <point x="229" y="28"/>
      <point x="229" y="80" type="curve" smooth="yes"/>
      <point x="228" y="134"/>
      <point x="193" y="172"/>
      <point x="140" y="172" type="curve" smooth="yes"/>
      <point x="87" y="172"/>
      <point x="50" y="133"/>
      <point x="50" y="80" type="curve" smooth="yes"/>
      <point x="50" y="28"/>
      <point x="87" y="-11"/>
    </contour>
  </outline>
</glyph>
<glyph name="dvYya" format="1">
  <advance width="590"/>
  <outline>
    <contour>
      <point x="-10" y="574" type="line"/>
      <point x="-10" y="478" type="line"/>
      <point x="600" y="478" type="line"/>
      <point x="600" y="574" type="line"/>
    </contour>
    <contour>
      <point x="247" y="120" type="curve" smooth="yes"/>
      <point x="297" y="120"/>
      <point x="323" y="125"/>
      <point x="360" y="137" type="curve"/>
      <point x="360" y="313" type="line"/>
      <point x="360" y="303"/>
      <point x="358" y="290"/>
      <point x="354" y="281" type="curve" smooth="yes"/>
      <point x="343" y="256"/>
      <point x="315" y="229"/>
      <point x="273" y="229" type="curve" smooth="yes"/>
      <point x="240" y="229"/>
      <point x="211" y="237"/>
      <point x="194" y="265" type="curve"/>
      <point x="235" y="295"/>
      <point x="255" y="331"/>
      <point x="255" y="384" type="curve" smooth="yes"/>
      <point x="255" y="417"/>
      <point x="246" y="453"/>
      <point x="224" y="478" type="curve"/>
      <point x="69" y="478" type="line"/>
      <point x="99" y="447"/>
      <point x="103" y="417"/>
      <point x="103" y="392" type="curve" smooth="yes"/>
      <point x="103" y="345"/>
      <point x="85" y="325"/>
      <point x="22" y="308" type="curve"/>
      <point x="18" y="293" type="line"/>
      <point x="32" y="184"/>
      <point x="141" y="120"/>
    </contour>
    <contour>
      <point x="360" y="0" type="line"/>
      <point x="526" y="0" type="line"/>
      <point x="526" y="506" type="line"/>
      <point x="360" y="506" type="line"/>
    </contour>
    <contour>
      <point x="170" y="76" type="curve" smooth="yes"/>
      <point x="121" y="76"/>
      <point x="90" y="43"/>
      <point x="90" y="-1" type="curve" smooth="yes"/>
      <point x="90" y="-43"/>
      <point x="121" y="-77"/>
      <point x="169" y="-77" type="curve" smooth="yes"/>
      <point x="219" y="-77"/>
      <point x="251" y="-43"/>
      <point x="251" y="-1" type="curve" smooth="yes"/>
      <point x="250" y="43"/>
      <point x="219" y="76"/>
    </contour>
  </outline>
</glyph>
<glyph name="svastiright" format="1">
	<advance width="941"/>
	<outline>
		<contour>
			<point x="146" y="-70" type="line"/>
			<point x="524" y="-70" type="line"/>
			<point x="524" y="197" type="line"/>
			<point x="685" y="197" type="line"/>
			<point x="685" y="-73" type="line"/>
			<point x="792" y="-73" type="line"/>
			<point x="792" y="305" type="line"/>
			<point x="524" y="305" type="line"/>
			<point x="524" y="465" type="line"/>
			<point x="795" y="465" type="line"/>
			<point x="795" y="572" type="line"/>
			<point x="417" y="572" type="line"/>
			<point x="417" y="305" type="line"/>
			<point x="257" y="305" type="line"/>
			<point x="257" y="575" type="line"/>
			<point x="149" y="575" type="line"/>
			<point x="149" y="197" type="line"/>
			<point x="417" y="197" type="line"/>
			<point x="417" y="37" type="line"/>
			<point x="146" y="37" type="line"/>
		</contour>
	</outline>
</glyph>
